<?xml version="1.0" standalone="no"?>
<!DOCTYPE svg PUBLIC "-//W3C//DTD SVG 20010904//EN"
 "http://www.w3.org/TR/2001/REC-SVG-20010904/DTD/svg10.dtd">
<svg version="1.0" xmlns="http://www.w3.org/2000/svg"
 width="53.87" height="43.61" viewBox="0 0 256.000000 256.000000"
 preserveAspectRatio="xMidYMid meet">

<g transform="translate(0.000000,256.000000) scale(0.100000,-0.100000)"
fill="#000000" stroke="none">
<path d="M314 2291 c-46 -28 -89 -86 -108 -144 -41 -126 -40 -347 5 -583 20
-110 20 -110 1 -170 -34 -102 -45 -175 -45 -299 0 -146 17 -223 80 -355 39
-81 58 -107 132 -180 136 -134 302 -216 546 -269 110 -23 140 -26 350 -26 247
0 321 9 495 61 178 54 335 147 440 261 163 178 222 448 160 731 -18 83 -21 55
-4 -36 8 -44 14 -105 12 -133 l-3 -53 -38 33 c-29 26 -35 36 -26 47 9 11 7 14
-12 13 -13 -1 -44 8 -69 19 -56 27 -93 27 -147 2 -61 -27 -54 -39 21 -33 82 7
97 -11 21 -27 -30 -6 -57 -16 -60 -21 -8 -12 11 -11 96 3 l70 11 30 -29 30
-29 -83 -27 c-54 -18 -93 -25 -113 -21 -28 5 -29 4 -15 -12 14 -17 12 -18 -33
-13 -58 7 -59 -8 -2 -36 37 -19 41 -19 86 -3 27 10 77 17 120 17 81 0 86 8 12
19 -47 7 -47 7 -24 20 26 15 125 20 137 8 12 -12 -25 -177 -58 -254 -16 -41
-50 -101 -74 -134 l-45 -60 -40 23 c-83 46 -130 124 -179 295 -11 40 -25 75
-30 78 -5 3 6 26 25 51 33 42 35 51 35 118 0 64 -4 78 -30 117 -72 108 -202
132 -289 53 -51 -45 -64 -81 -59 -153 5 -68 31 -114 86 -152 31 -21 47 -24
123 -24 49 0 92 -5 97 -10 5 -6 26 -62 45 -125 50 -159 107 -241 185 -265 31
-9 28 -16 -20 -56 -146 -121 -313 -195 -543 -242 -149 -30 -477 -32 -630 -3
-395 72 -659 262 -755 540 l-18 54 26 25 c38 35 102 67 134 67 15 0 50 -5 78
-11 42 -9 57 -8 85 6 19 9 35 18 35 20 0 3 -20 2 -44 -1 -24 -4 -52 -2 -61 4
-17 9 -17 10 3 16 12 4 22 12 22 18 0 5 -7 7 -16 4 -9 -3 -41 -9 -72 -12 -81
-8 -156 -25 -143 -33 7 -5 0 -18 -19 -36 -16 -16 -32 -27 -34 -24 -2 2 -7 23
-11 46 -5 35 -3 43 13 52 10 5 38 26 61 46 49 40 67 43 121 15 42 -21 103 -26
143 -11 22 9 25 7 30 -19 10 -50 99 -100 176 -100 44 0 110 29 139 61 12 12
23 21 26 18 2 -2 -3 -28 -12 -56 -10 -37 -33 -75 -74 -124 -73 -87 -88 -121
-88 -202 0 -88 -29 -143 -95 -180 -27 -15 -39 -25 -25 -21 88 24 120 71 130
194 9 99 19 123 88 202 55 63 77 111 93 208 22 136 22 165 -1 211 -20 39 -22
53 -16 133 11 162 56 259 137 301 32 17 85 20 94 5 3 -5 15 -15 25 -20 15 -8
18 -7 14 3 -3 8 2 34 10 58 18 52 19 59 6 59 -17 0 -50 -43 -50 -65 0 -18 -5
-21 -30 -17 -16 2 -43 0 -59 -6 l-29 -10 15 36 c19 45 11 97 -19 129 -20 22
-21 27 -10 68 7 25 12 58 12 74 0 25 5 30 33 36 17 4 41 9 51 12 18 5 19 0 12
-113 -3 -66 -9 -130 -12 -144 -5 -24 -5 -24 25 7 42 45 55 100 40 171 -6 31
-14 62 -16 69 -3 7 0 13 7 13 6 0 23 9 38 20 19 16 27 18 33 8 4 -7 11 -9 15
-5 4 4 3 12 -3 18 -9 9 -20 6 -45 -8 -19 -12 -70 -25 -121 -32 -48 -7 -125
-23 -170 -37 -45 -14 -87 -26 -93 -26 -12 -1 -8 -71 6 -97 13 -24 44 34 37 68
-6 28 -4 29 54 46 34 9 63 14 66 12 10 -10 -32 -81 -85 -146 -114 -137 -157
-283 -130 -438 l14 -83 -30 0 c-77 0 -170 -82 -182 -162 l-7 -38 -48 0 c-27 0
-49 -4 -49 -10 0 -12 -30 -13 -49 -1 -11 7 -2 15 35 35 l49 25 -45 0 c-25 0
-63 -7 -85 -16 -22 -9 -57 -16 -77 -16 -42 1 -48 -4 -19 -15 17 -6 13 -13 -31
-62 l-50 -55 5 115 c6 130 34 246 57 243 8 -1 27 -5 42 -9 30 -7 78 2 78 14 0
4 -27 15 -59 25 l-59 19 -11 62 c-14 79 -14 76 7 76 11 0 27 9 37 20 25 27 32
25 40 -10 4 -17 10 -30 14 -30 4 0 36 37 72 82 68 86 132 144 242 218 l66 44
-25 45 c-27 49 -26 94 3 66 38 -39 15 30 -32 94 -47 65 -13 46 63 -34 41 -44
69 -69 62 -55 -20 38 -138 150 -204 194 -112 74 -202 94 -262 57z m115 -18
c-4 -24 10 -63 22 -63 5 0 8 8 7 18 -4 50 0 54 35 36 77 -39 117 -69 112 -85
-3 -9 3 -36 14 -60 38 -88 34 -90 -36 -20 -52 52 -79 70 -115 80 -87 24 -151
-4 -183 -81 -25 -60 -32 -261 -12 -345 13 -59 13 -62 -4 -53 -10 6 -29 10 -42
10 -22 0 -25 5 -30 68 -4 37 -7 84 -7 105 l0 38 26 -28 25 -28 -6 30 c-4 17
-15 39 -26 51 -23 24 -25 49 -4 40 8 -3 15 0 15 6 0 6 6 6 16 -3 14 -11 15 -9
9 27 -4 21 -13 56 -20 76 -11 33 -10 43 10 85 12 27 38 63 59 81 31 27 45 32
87 32 42 0 50 -3 48 -17z m85 -132 c18 -12 52 -41 75 -66 40 -43 101 -131 101
-146 0 -3 -28 -23 -61 -44 -34 -21 -86 -57 -115 -81 -28 -23 -55 -41 -58 -38
-3 2 -4 1 -2 -2 3 -3 -14 -29 -37 -57 -23 -29 -51 -65 -63 -81 l-20 -28 -23
77 c-28 92 -38 201 -30 310 7 96 29 147 72 169 41 21 115 15 161 -13z m-300
-117 c3 -8 2 -12 -4 -9 -6 3 -10 10 -10 16 0 14 7 11 14 -7z m774 -254 l13
-61 -32 -37 c-57 -65 -89 -171 -89 -298 l0 -52 -50 27 c-45 24 -50 29 -50 61
0 46 45 231 71 289 11 25 37 72 57 103 32 50 39 55 52 43 9 -8 22 -42 28 -75z
m-700 -102 c-6 -17 -55 -41 -68 -33 -6 3 -10 15 -10 26 0 16 7 19 41 19 28 0
39 -4 37 -12z m556 -380 c21 -30 20 -54 -4 -78 -24 -24 -57 -26 -82 -3 -38 34
-10 103 42 103 18 0 34 -8 44 -22z m1051 16 c37 -15 38 -82 1 -106 -37 -25
-86 5 -86 52 0 47 38 72 85 54z m-1353 -179 c-2 -14 -12 -25 -21 -26 -37 -3
-78 4 -106 17 -28 13 -27 13 29 7 40 -4 57 -2 52 5 -3 6 4 12 16 15 13 2 26 5
29 6 3 0 4 -10 1 -24z"/>
<path d="M377 2135 c-20 -14 -37 -31 -37 -38 1 -7 5 -6 13 4 7 9 28 26 47 38
19 11 30 21 25 21 -6 0 -27 -11 -48 -25z"/>
<path d="M379 2097 c5 -5 21 -7 37 -5 27 3 26 4 -8 9 -22 3 -34 1 -29 -4z"/>
<path d="M428 2067 c-15 -12 -37 -30 -50 -39 l-23 -17 30 0 c17 -1 37 4 45 9
11 8 7 9 -15 4 l-30 -7 40 36 c44 40 46 50 3 14z"/>
<path d="M371 1930 c-12 -37 -5 -37 39 -5 38 28 33 34 -7 8 -25 -17 -25 -17
-19 5 11 33 -1 26 -13 -8z"/>
<path d="M381 1841 c-1 -32 0 -33 17 -19 9 8 26 18 36 22 10 3 16 9 13 13 -4
3 -17 -2 -31 -10 -24 -16 -25 -16 -29 6 -3 15 -5 11 -6 -12z"/>
<path d="M440 1790 c-8 -5 -12 -12 -9 -15 4 -3 12 1 19 10 14 17 11 19 -10 5z"/>
<path d="M2089 2291 c-94 -37 -262 -170 -303 -242 -13 -22 5 -8 50 40 l69 74
5 -44 5 -44 17 55 c10 31 28 65 40 77 40 37 143 83 186 83 39 0 40 -1 37 -32
-2 -18 -3 -42 -4 -54 -1 -17 -6 -20 -29 -16 -61 9 -113 -16 -187 -91 -39 -40
-82 -95 -97 -122 l-27 -51 72 -49 c112 -76 161 -121 233 -211 36 -46 69 -84
73 -84 5 0 21 42 37 93 26 84 29 105 29 237 0 115 -4 153 -17 183 l-17 37 24
0 c13 0 30 3 38 6 24 9 37 -53 44 -197 l6 -125 -32 -36 c-52 -59 -87 -157 -63
-172 5 -3 19 17 32 45 29 61 49 82 42 42 -2 -16 -9 -33 -14 -40 -5 -7 -7 -21
-3 -32 10 -31 -12 -139 -34 -168 -27 -33 -27 -47 0 -32 23 12 39 0 39 -30 0
-8 3 -11 6 -8 4 4 1 20 -6 36 -10 25 -8 50 10 153 40 226 42 453 5 571 -21 63
-70 129 -116 152 -37 20 -93 18 -150 -4z m172 -27 c16 -14 16 -19 5 -38 -8
-11 -17 -32 -21 -46 -8 -25 -8 -25 14 -6 11 11 21 25 21 32 0 27 20 23 35 -6
l16 -30 -31 -6 c-17 -4 -33 -10 -36 -15 -3 -5 -16 -2 -30 7 -19 13 -22 20 -13
30 6 8 11 32 11 54 -1 44 3 48 29 24z m-41 -119 c44 -40 54 -74 58 -205 3
-102 0 -141 -16 -210 -35 -146 -30 -142 -90 -62 -64 86 -130 147 -228 208 -41
26 -74 51 -74 54 0 4 17 33 38 66 44 68 119 139 165 159 45 19 121 14 147 -10z"/>
<path d="M2130 2156 c0 -2 7 -7 16 -10 8 -3 12 -2 9 4 -6 10 -25 14 -25 6z"/>
<path d="M2179 2128 c15 -20 10 -23 -39 -31 -21 -4 -20 -5 7 -6 17 0 35 4 38
9 5 8 12 7 23 -2 13 -11 14 -11 11 1 -3 8 -16 21 -30 30 -22 15 -23 15 -10 -1z"/>
<path d="M2145 2044 l30 -26 -30 6 c-22 5 -26 4 -15 -4 19 -12 73 -13 66 -1
-3 5 -23 19 -43 30 l-38 21 30 -26z"/>
<path d="M2165 1968 c3 -10 8 -26 12 -35 7 -17 5 -17 -21 0 -41 27 -41 16 0
-12 19 -13 36 -22 39 -20 2 3 -5 22 -16 44 -11 22 -17 32 -14 23z"/>
<path d="M2115 1850 c3 -5 11 -10 17 -10 6 0 20 -7 30 -17 17 -15 18 -15 17
13 -1 17 -3 22 -6 11 -4 -15 -6 -16 -26 -2 -25 17 -41 20 -32 5z"/>
<path d="M2100 1796 c0 -2 7 -9 15 -16 9 -7 15 -8 15 -2 0 5 -7 12 -15 16 -8
3 -15 4 -15 2z"/>
<path d="M1271 2140 c-13 -11 -18 -20 -13 -20 6 0 14 5 17 10 13 21 25 9 19
-17 -7 -25 -5 -26 9 -15 13 11 17 10 26 -6 9 -16 2 -30 -38 -83 -26 -35 -53
-75 -60 -88 -20 -37 -18 -130 4 -171 16 -31 16 -33 1 -21 -14 12 -19 12 -29 1
-7 -8 -8 -10 -1 -7 6 4 19 -2 29 -13 20 -23 45 -26 63 -8 9 9 16 8 31 -6 10
-9 24 -16 31 -14 8 2 30 -42 60 -117 66 -171 98 -232 153 -289 l49 -51 -47 59
c-56 72 -74 106 -130 250 l-44 112 24 51 c14 28 29 69 33 90 8 38 8 38 21 14
7 -13 15 -56 16 -95 4 -85 14 -146 25 -146 4 0 13 42 20 94 15 113 5 153 -46
194 -19 15 -34 36 -34 48 0 12 -7 41 -15 64 -8 23 -15 58 -15 77 l0 35 43 -7
c54 -9 59 -13 52 -35 -3 -10 4 -45 16 -77 51 -138 58 -179 59 -373 0 -109 4
-179 9 -170 27 47 54 181 55 270 0 109 -18 181 -70 279 -38 72 -43 95 -16 87
9 -2 45 -12 78 -21 l62 -17 -5 -37 c-4 -28 0 -40 16 -55 20 -18 20 -18 25 5
12 61 15 89 8 87 -4 -1 -38 8 -77 20 -83 27 -220 52 -283 52 -35 0 -50 5 -68
25 -13 14 -21 32 -18 40 9 21 -16 18 -45 -5z m115 -137 c1 -38 5 -129 9 -203
6 -126 6 -134 -9 -113 -9 12 -23 20 -30 17 -8 -3 -17 -1 -21 5 -3 6 -14 11
-24 11 -12 0 -22 17 -35 54 l-19 54 42 74 c23 40 51 94 63 121 11 26 21 47 22
47 0 0 2 -30 2 -67z"/>
<path d="M1322 1918 c-14 -14 -16 -84 -3 -93 6 -3 13 15 16 39 9 55 5 72 -13
54z"/>
<path d="M1196 2028 c-9 -35 -7 -108 3 -108 17 0 33 59 27 95 -8 40 -21 46
-30 13z"/>
<path d="M1258 1143 c12 -2 32 -2 45 0 12 2 2 4 -23 4 -25 0 -35 -2 -22 -4z"/>
<path d="M1230 1124 c0 -6 9 -19 20 -29 25 -23 26 -47 2 -68 -25 -23 -38 -21
-56 5 -13 18 -16 19 -16 6 0 -22 38 -48 59 -41 9 3 22 13 29 21 11 14 13 14
25 0 6 -8 19 -18 28 -21 21 -7 59 19 59 40 0 11 -5 9 -18 -7 -13 -17 -24 -21
-40 -16 -28 9 -39 51 -20 74 28 32 30 47 3 18 l-27 -29 -24 29 c-13 16 -23 24
-24 18z"/>
<path d="M415 895 c-147 -58 -213 -101 -116 -75 79 21 215 91 201 103 -3 2
-41 -10 -85 -28z"/>
<path d="M2060 915 c26 -32 232 -117 247 -101 7 6 -79 49 -159 80 -35 13 -72
28 -83 32 -18 7 -19 6 -5 -11z"/>
</g>
</svg>
