<svg version="1.1" id="Layer_1" xmlns="http://www.w3.org/2000/svg" xmlns:xlink="http://www.w3.org/1999/xlink" width="53.87" height="43.61" viewBox="0 0 256 256" enable-background="new 0 0 256 256" xml:space="preserve">
<path fill="#ffffff00" opacity="1.000000" stroke="none" 
	d="
M151.000000,257.000000 
	C100.666672,257.000000 50.833340,257.000000 1.000007,257.000000 
	C1.000005,171.666672 1.000005,86.333351 1.000002,1.000018 
	C86.333321,1.000012 171.666641,1.000012 257.000000,1.000006 
	C257.000000,86.333313 257.000000,171.666626 257.000000,256.999969 
	C221.833328,257.000000 186.666672,257.000000 151.000000,257.000000 
M207.734207,209.792618 
	C207.734207,209.792618 207.665787,209.694809 208.252502,209.692368 
	C208.522903,209.425232 208.793304,209.158096 209.614639,208.508438 
	C213.177307,205.399887 216.739960,202.291336 220.942535,198.988693 
	C223.636520,196.000702 226.330505,193.012711 229.478943,190.040924 
	C229.482895,189.791672 229.486847,189.542419 229.490799,189.293152 
	C229.324890,189.525925 229.158981,189.758698 228.351334,189.692947 
	C230.042694,187.614410 232.512344,185.790207 233.289185,183.412827 
	C236.462936,173.700104 239.119431,163.818375 242.014481,153.086334 
	C242.011627,151.438324 242.213440,149.759247 241.969040,148.147873 
	C241.098755,142.410095 240.076630,136.695328 239.043274,130.170349 
	C237.488617,124.762230 235.944672,119.350983 234.368576,113.949120 
	C234.111053,113.066513 233.305313,112.153740 233.442215,111.376297 
	C234.515320,105.282860 235.756546,99.219032 237.235458,92.406914 
	C237.774445,91.388901 238.742157,90.389244 238.786652,89.350067 
	C239.275467,77.935120 239.683868,66.515312 239.917755,55.092812 
	C239.944565,53.783669 238.778091,52.450096 238.050354,50.349358 
	C237.374451,48.235428 236.698547,46.121498 236.298660,43.366459 
	C235.503906,41.252922 234.709152,39.139389 233.387451,36.618839 
	C231.667236,34.138691 229.947021,31.658548 227.883255,28.541594 
	C225.587036,27.715708 223.290817,26.889822 220.215576,26.026155 
	C218.532806,26.289354 216.850021,26.552553 214.603622,26.948147 
	C214.412491,26.974901 214.221359,27.001654 213.388916,26.998877 
	C212.635513,27.277304 211.882095,27.555731 210.404587,27.921303 
	C210.162338,27.941734 209.920090,27.962164 209.448502,27.395029 
	C208.637833,27.605160 207.827164,27.815290 206.664139,28.603035 
	C203.082550,31.070513 199.500977,33.537991 195.327072,36.304066 
	C193.292618,38.246056 191.258163,40.188046 189.221695,42.245995 
	C189.221695,42.245995 189.122757,42.306503 188.419785,42.176315 
	C186.681229,44.161385 184.942688,46.146454 183.159500,48.143742 
	C183.159500,48.143742 183.116791,48.125923 182.586502,48.388817 
	C182.389999,48.928440 182.193497,49.468067 181.998306,49.998627 
	C181.998306,49.998627 182.007172,49.996632 181.462341,50.009731 
	C180.996719,50.241436 180.531113,50.473141 179.324295,51.212803 
	C178.936279,51.667946 178.548264,52.123085 178.029572,52.816010 
	C177.993011,53.124603 177.985931,53.434052 177.324234,53.905315 
	C176.787125,54.308403 176.250000,54.711491 175.269913,55.154205 
	C174.750610,55.224468 174.231293,55.294727 172.958099,55.446712 
	C168.270950,54.252964 163.583817,53.059212 158.454681,51.361618 
	C156.942764,50.920315 155.430847,50.479012 153.203354,49.997013 
	C150.463364,49.674255 147.723389,49.351498 144.411606,48.840996 
	C143.058426,48.901524 141.705261,48.962051 139.574539,49.058636 
	C139.056061,49.051144 138.537598,49.043648 137.469086,48.810738 
	C136.682907,48.229038 135.896713,47.647339 134.840424,46.501781 
	C133.921524,45.684895 133.002625,44.868008 132.019196,43.407070 
	C131.998444,43.192314 131.977692,42.977554 131.428452,42.338741 
	C126.106628,44.972282 119.570236,44.615997 114.194412,49.007782 
	C113.417938,49.019417 112.641472,49.031052 111.194870,49.056267 
	C108.460297,49.699154 105.725731,50.342037 102.372971,50.707157 
	C100.961418,50.762428 99.549873,50.817703 97.353355,50.958942 
	C92.889259,52.627888 88.425171,54.296837 84.012001,55.972927 
	C84.012001,55.972927 84.025497,56.022408 83.724937,55.408508 
	C77.554153,49.670563 71.383369,43.932621 64.838303,37.636379 
	C63.869755,37.099991 62.901207,36.563606 61.313568,35.735821 
	C59.473774,34.196323 57.857254,32.142673 55.746891,31.226223 
	C51.577229,29.415487 47.134266,28.234091 42.289009,26.331541 
	C40.527264,26.548109 38.765514,26.764677 36.298748,27.040609 
	C34.577995,27.255409 32.061092,26.827595 31.277296,27.798662 
	C28.235174,31.567619 25.744110,35.781364 22.599472,40.127888 
	C22.416805,40.930042 22.234138,41.732201 22.075180,42.491932 
	C22.075180,42.491932 22.101650,42.532692 21.646065,42.838314 
	C21.469393,42.885513 21.292723,42.932709 20.519907,43.095078 
	C20.574545,43.955978 20.629183,44.816875 20.601694,46.356255 
	C20.396021,47.239353 20.190348,48.122456 19.488752,49.519390 
	C19.346998,50.701782 19.205244,51.884178 19.011793,53.895061 
	C18.683331,57.603027 18.354870,61.310993 18.006409,65.870880 
	C18.687504,71.225609 19.368601,76.580338 19.492207,82.473335 
	C19.692972,86.313293 19.893738,90.153244 20.172695,94.554993 
	C20.802238,96.411453 21.431782,98.267921 22.082956,100.948952 
	C22.730391,104.304771 23.377823,107.660591 23.973463,111.621582 
	C23.677654,112.367416 23.381844,113.113258 22.411900,114.243744 
	C21.325630,119.483528 20.239361,124.723320 18.788166,130.638672 
	C16.430113,137.408752 15.997888,144.246017 17.686703,151.782837 
	C17.816265,154.185608 17.945827,156.588379 17.835541,159.595718 
	C18.570814,163.094940 19.306089,166.594147 20.091131,170.809448 
	C21.069870,172.862823 22.443295,174.823608 22.951036,176.987488 
	C24.305426,182.759674 25.753611,188.355057 31.110722,191.891647 
	C31.110722,191.891647 30.878750,192.137741 30.332674,192.466339 
	C31.668875,193.606033 33.055286,194.692398 34.332531,195.894730 
	C39.684673,200.932922 44.836807,206.202393 50.425968,210.959778 
	C52.391201,212.632568 55.398483,213.081100 58.075645,214.710693 
	C60.146698,215.704742 62.205585,216.725159 64.291321,217.687378 
	C68.675041,219.709732 72.944221,222.089539 77.500031,223.599823 
	C82.330124,225.201035 87.433556,225.984543 92.426910,227.082932 
	C94.286354,227.491959 96.172096,227.781479 98.519226,228.597168 
	C99.621483,228.717575 100.723740,228.837967 102.165710,229.597839 
	C103.092697,229.648071 104.019691,229.698288 105.684929,230.004837 
	C110.875816,232.464798 116.238045,233.947266 122.829269,232.983017 
	C123.877396,232.943939 124.925529,232.904861 126.777245,233.041473 
	C129.273438,233.054459 131.777603,233.200058 134.264008,233.050476 
	C138.361862,232.803940 142.464920,232.488724 146.529144,231.933990 
	C147.725037,231.770782 148.797241,230.701340 150.632492,230.035400 
	C151.730804,229.762985 152.829102,229.490585 154.436600,229.033295 
	C154.615906,229.011902 154.795197,228.990524 155.728729,228.970093 
	C157.135056,228.704956 158.541367,228.439835 160.711594,228.029388 
	C177.600418,226.544174 192.165436,218.827423 207.206909,210.682327 
	C207.405060,210.352859 207.603226,210.023407 207.734207,209.792618 
z"/>
<path fill="#EEEEEE" opacity="1.000000" stroke="none" 
	d="
M206.651123,210.897964 
	C192.165436,218.827423 177.600418,226.544174 159.951645,227.995438 
	C157.785965,228.297379 156.380234,228.633270 154.974503,228.969162 
	C154.795197,228.990524 154.615906,229.011902 153.797333,229.049255 
	C151.822617,229.363510 150.487183,229.661804 148.694107,229.980255 
	C141.976181,230.302704 135.708862,230.512405 129.461761,230.987854 
	C128.258392,231.079437 127.134315,232.212921 125.973656,232.865784 
	C124.925529,232.904861 123.877396,232.943939 122.553978,232.641235 
	C120.839951,227.519882 116.979347,229.283325 113.801460,229.124115 
	C112.528755,229.060349 110.845612,229.222855 110.077644,228.504120 
	C107.496223,226.088272 106.189735,227.440674 104.946678,229.748520 
	C104.019691,229.698288 103.092697,229.648071 101.915672,228.916046 
	C100.459038,228.197998 99.252441,228.161743 98.045845,228.125488 
	C96.172096,227.781479 94.286354,227.491959 92.426910,227.082932 
	C87.433556,225.984543 82.330124,225.201035 77.500031,223.599823 
	C72.944221,222.089539 68.675041,219.709732 64.291321,217.687378 
	C62.205585,216.725159 60.146698,215.704742 58.154125,214.063171 
	C62.752697,210.784073 68.245575,209.542145 71.365707,204.225098 
	C72.469673,200.560349 73.417824,197.146393 73.981430,193.670090 
	C74.494278,190.506851 74.589424,187.275925 75.042915,183.748291 
	C77.066566,180.224701 78.418655,176.565887 80.869026,173.926804 
	C85.961739,168.441895 91.021385,163.160843 91.374298,154.796112 
	C91.701744,152.970856 91.706161,151.385422 91.748962,149.409149 
	C94.801147,141.575424 95.445457,134.261841 90.662155,126.767929 
	C90.780373,120.535522 90.835663,114.783089 90.947083,108.621994 
	C92.404243,99.963501 95.283592,92.478821 102.359131,86.866531 
	C106.411316,86.220879 110.099075,85.686111 113.841263,85.469650 
	C114.584991,86.541420 115.274300,87.294876 116.096954,88.353714 
	C118.363289,90.936989 119.320786,89.112877 120.765450,87.645638 
	C121.689133,86.707520 123.391479,86.536095 124.892448,86.313782 
	C126.874275,89.102272 128.837967,88.956062 131.149323,86.862503 
	C131.840393,86.567146 132.277771,86.303101 132.873810,86.341866 
	C135.008148,87.452820 136.983826,88.260956 138.968246,89.033127 
	C138.976990,88.997162 138.913193,89.034721 138.893509,89.422882 
	C141.931992,97.863663 144.990158,105.916275 148.129547,114.304596 
	C151.164764,119.343033 153.880020,124.222435 157.173813,128.673752 
	C158.813522,130.889709 161.513458,132.321121 163.814331,134.549530 
	C163.420517,152.264877 173.658630,160.665115 190.772430,157.122482 
	C191.782928,156.913315 192.931274,157.370102 194.055237,157.842010 
	C195.672134,162.022873 197.678360,165.763840 198.746994,169.755814 
	C202.137024,182.419464 207.800461,193.263596 220.302628,199.182785 
	C216.739960,202.291336 213.177307,205.399887 209.024170,208.646164 
	C208.177719,209.087524 207.921738,209.391159 207.665771,209.694794 
	C207.665787,209.694809 207.734207,209.792618 207.455719,209.785004 
	C207.001862,210.150925 206.826492,210.524445 206.651123,210.897964 
M123.597710,144.370743 
	C124.423424,145.337753 125.249138,146.304764 126.201118,147.939133 
	C129.312836,151.018188 131.163010,150.814072 131.655121,145.820770 
	C132.029709,145.573639 132.404282,145.326508 133.522964,145.050858 
	C135.446869,143.614182 135.623306,142.539993 132.043701,142.005142 
	C129.748352,142.039490 127.453003,142.073837 124.622040,141.995499 
	C124.144928,142.566223 123.667816,143.136932 123.597710,144.370743 
M131.003006,154.115387 
	C130.608734,150.840286 129.527206,149.557907 126.950783,152.738815 
	C124.823517,155.365158 122.791161,155.868561 120.723824,152.638458 
	C120.346657,152.049164 119.570251,151.715393 118.762131,151.098877 
	C118.707886,155.511826 124.036606,162.409882 127.551445,162.895248 
	C128.198883,162.984680 128.882767,162.984985 129.527908,162.885040 
	C131.898590,162.517746 139.086929,155.001358 139.507294,152.437607 
	C139.537109,152.255737 139.096420,151.996735 139.610641,152.513794 
	C136.430115,153.383026 133.797043,154.102631 131.003006,154.115387 
z"/>
<path fill="#988F93" opacity="1.000000" stroke="none" 
	d="
M220.622589,199.085739 
	C207.800461,193.263596 202.137024,182.419464 198.746994,169.755814 
	C197.678360,165.763840 195.672134,162.022873 193.953918,157.458466 
	C194.887421,155.517517 195.941818,154.266785 197.039902,153.055695 
	C204.437439,144.897034 203.387329,132.798019 194.613449,125.206398 
	C186.463211,118.154388 174.572922,118.809135 167.969666,126.877037 
	C166.222000,129.012390 165.127975,131.682739 163.733826,134.107422 
	C161.513458,132.321121 158.813522,130.889709 157.173813,128.673752 
	C153.880020,124.222435 151.164764,119.343033 148.418503,114.107544 
	C148.340714,112.192917 148.194839,110.763786 147.745987,109.437164 
	C145.548035,102.940819 143.269379,96.471786 141.007935,89.997139 
	C140.996628,90.001175 140.985291,90.022354 141.307220,89.991524 
	C142.093307,89.316673 142.557449,88.672653 143.148804,87.691376 
	C144.768219,83.242508 146.260422,79.130898 147.924225,74.546432 
	C153.733643,82.363937 148.584564,91.993126 153.314163,99.775658 
	C154.244171,93.957870 154.802994,88.101212 155.163239,82.232368 
	C155.441772,77.695076 153.368866,74.294983 149.652618,71.745300 
	C148.649780,71.057266 147.513611,70.075829 147.173279,68.997269 
	C145.931046,65.060387 144.640411,61.074921 144.080917,57.009655 
	C143.727203,54.439430 144.639145,51.695023 144.983398,49.028736 
	C147.723389,49.351498 150.463364,49.674255 153.578094,50.466759 
	C154.968063,56.072281 156.000732,61.204685 156.994339,66.344643 
	C158.369217,73.456917 160.365158,80.525627 160.908493,87.702827 
	C161.590775,96.715393 161.072784,105.818825 161.072784,115.423988 
	C168.372955,103.155960 169.248688,80.344429 163.143936,67.312256 
	C161.523804,63.853687 159.377335,60.613663 158.057205,57.056320 
	C157.526703,55.626743 158.569778,53.613213 158.896667,51.865463 
	C163.583817,53.059212 168.270950,54.252964 173.160980,55.853432 
	C172.151901,59.833969 170.842285,63.429447 176.863144,65.578003 
	C176.479721,62.090199 176.096313,58.602390 175.712891,55.114578 
	C176.250000,54.711491 176.787125,54.308403 177.821259,54.033428 
	C178.759766,53.736515 179.201263,53.311489 179.642761,52.886459 
	C179.148590,52.783714 178.654419,52.680969 178.160248,52.578224 
	C178.548264,52.123085 178.936279,51.667946 179.979416,51.016525 
	C181.092087,50.545708 181.549622,50.271172 182.007172,49.996635 
	C182.007172,49.996632 181.998306,49.998627 182.254700,49.859756 
	C182.712982,49.189232 182.914886,48.657578 183.116791,48.125923 
	C183.116791,48.125923 183.159500,48.143742 183.506882,48.088577 
	C185.610428,46.124443 187.366592,44.215477 189.122757,42.306503 
	C189.122757,42.306503 189.221695,42.245995 189.523834,42.195702 
	C191.292221,42.295292 192.758499,42.445175 195.126114,42.687191 
	C195.387283,40.487381 195.653336,38.246426 195.919403,36.005470 
	C199.500977,33.537991 203.082550,31.070513 207.174606,28.338512 
	C208.349335,28.043522 209.013580,28.013058 209.677841,27.982592 
	C209.920090,27.962164 210.162338,27.941734 211.096024,27.947123 
	C212.535049,27.658098 213.282654,27.343252 214.030243,27.028408 
	C214.221359,27.001654 214.412491,26.974901 215.295105,26.960764 
	C217.657455,26.983639 219.328339,26.993895 221.073593,27.443802 
	C220.817261,31.417076 220.486572,34.950703 220.196213,38.053417 
	C216.089966,38.759361 212.545609,39.368706 208.943451,40.249336 
	C204.115250,44.212696 197.788559,46.264938 195.487946,52.988625 
	C193.189926,55.593334 190.839981,57.929771 189.435104,60.738861 
	C188.739624,62.129547 189.109970,65.314888 190.166992,66.086060 
	C193.461853,68.489853 197.314667,70.128876 200.976776,72.035378 
	C201.002441,72.006317 200.938446,72.049339 200.990128,72.386589 
	C202.030914,73.472069 203.020004,74.220299 204.222687,74.997818 
	C204.436264,75.027100 204.863312,75.086243 204.924713,75.407257 
	C206.001160,76.805397 207.016190,77.882523 208.141205,79.180939 
	C208.453476,79.676720 208.715988,79.868958 209.121109,80.181747 
	C209.384674,80.671654 209.638580,80.768990 210.110062,80.971199 
	C211.170670,82.186691 212.086411,83.107567 213.209503,84.290161 
	C214.951569,86.342690 216.486267,88.133484 218.166779,90.236023 
	C219.884583,92.693726 221.456589,94.839684 223.777130,98.007484 
	C225.812622,90.069649 227.508102,83.457802 229.571350,76.748596 
	C230.136871,69.725693 230.346771,62.800388 230.477692,55.873589 
	C230.481888,55.651165 229.677048,55.413445 229.157654,54.793068 
	C228.075790,52.224895 227.085663,50.046509 226.078690,47.539551 
	C226.068985,46.771618 226.076111,46.332256 226.436417,45.794540 
	C229.531952,43.299850 232.579819,42.573933 236.022644,44.007565 
	C236.698547,46.121498 237.374451,48.235428 238.032806,51.111580 
	C237.995071,58.407650 237.867706,64.943604 237.996475,71.474510 
	C238.068954,75.150177 237.171524,78.042831 234.382523,80.757980 
	C230.314987,84.717819 228.261963,89.760040 229.292526,95.792336 
	C231.441895,92.219734 233.591263,88.647133 236.229660,84.261688 
	C236.543732,88.157494 236.744827,90.651779 236.945908,93.146065 
	C235.756546,99.219032 234.515320,105.282860 233.442215,111.376297 
	C233.305313,112.153740 234.111053,113.066513 234.368576,113.949120 
	C235.944672,119.350983 237.488617,124.762230 239.001343,130.948456 
	C238.890137,133.150467 238.843887,134.575943 238.747025,135.997986 
	C238.496140,139.681519 238.222961,143.363541 237.669769,146.879974 
	C235.155930,144.722290 232.868790,142.795410 230.718582,140.726227 
	C225.712952,135.909195 219.833572,133.759109 212.950119,134.979034 
	C211.295242,135.272339 209.777710,136.340698 207.219986,137.492661 
	C212.480057,138.521973 216.256699,139.261002 220.071686,140.310120 
	C220.865692,142.414307 221.689606,143.737976 223.361252,141.239563 
	C225.654343,143.874191 227.681442,146.322708 230.251587,149.427200 
	C222.879257,151.099960 216.439468,152.561127 209.935730,153.955841 
	C209.871796,153.889389 209.725098,153.866653 209.725098,153.866653 
	C209.725098,153.866653 210.046570,153.973541 209.976288,154.375092 
	C207.419693,155.424957 204.933395,156.073257 201.960953,156.848328 
	C205.262604,160.739395 209.468979,160.946121 213.534714,159.524872 
	C217.406311,158.171463 220.748932,155.059113 224.659653,154.125305 
	C229.589233,152.948181 234.859253,153.196640 240.158020,153.073303 
	C240.877899,153.543991 241.422150,153.771423 241.966431,153.998871 
	C239.119431,163.818375 236.462936,173.700104 233.289185,183.412827 
	C232.512344,185.790207 230.042694,187.614410 228.678696,189.849579 
	C229.006058,190.006226 229.024490,190.024719 229.024506,190.024719 
	C226.330505,193.012711 223.636520,196.000702 220.622589,199.085739 
M218.102631,171.408829 
	C221.226425,172.653473 224.350204,173.898117 227.473999,175.142776 
	C227.734085,174.480728 227.994171,173.818680 228.254257,173.156631 
	C222.522186,170.814178 216.790131,168.471725 211.058075,166.129272 
	C210.829971,166.648682 210.601868,167.168106 210.373764,167.687515 
	C212.718918,168.827103 215.064087,169.966675 218.102631,171.408829 
M207.824982,138.359573 
	C207.463089,138.228073 207.101196,138.096573 206.739304,137.965057 
	C206.683380,138.199646 206.627457,138.434219 206.571533,138.668808 
	C206.844513,138.728378 207.117493,138.787964 207.824982,138.359573 
z"/>
<path fill="#999094" opacity="1.000000" stroke="none" 
	d="
M65.212585,38.194675 
	C71.383369,43.932621 77.554153,49.670563 83.510345,55.744915 
	C80.043228,57.357899 79.888916,60.803082 83.012230,65.969841 
	C86.850990,62.878700 86.187332,59.510086 83.961075,55.965782 
	C88.425171,54.296837 92.889259,52.627888 97.669052,51.200493 
	C96.766975,54.865646 95.798157,58.407784 94.244331,61.671398 
	C93.199707,63.865482 91.414040,65.739044 89.810226,67.628983 
	C83.037468,75.610039 77.154625,84.305275 76.372086,94.900352 
	C75.755814,103.244240 77.058556,111.729858 77.067886,120.197380 
	C64.651093,120.131996 54.716927,130.553986 55.696022,144.210938 
	C54.650566,145.554291 53.846077,146.701538 52.623405,147.860931 
	C50.400150,147.633865 48.456970,147.737152 46.821331,147.077682 
	C44.157940,146.003815 41.695503,144.431519 39.488853,143.043976 
	C40.726284,142.755920 41.623116,142.493484 42.954140,142.103989 
	C41.562778,141.113297 40.786049,140.560242 40.280411,139.803619 
	C42.138233,138.588959 43.724964,137.577850 45.311695,136.566727 
	C45.163750,136.140488 45.015804,135.714249 44.867863,135.288010 
	C39.255531,136.563538 33.643200,137.839066 30.442434,138.566513 
	C26.160324,143.392990 23.146507,146.789932 19.823360,149.879364 
	C19.351521,146.506989 19.101387,143.443604 19.049715,140.376877 
	C18.991251,136.907196 19.110893,133.434494 19.153090,129.963104 
	C20.239361,124.723320 21.325630,119.483528 22.937557,114.360603 
	C27.453356,115.749306 31.368084,118.964531 36.379139,114.599350 
	C31.836081,113.281746 27.930670,112.149078 24.025257,111.016403 
	C23.377823,107.660591 22.730391,104.304771 22.365072,100.321457 
	C25.427246,97.459511 28.207306,95.225060 31.296499,93.116570 
	C32.613811,94.609283 33.621990,95.976028 34.761990,97.521492 
	C36.601501,94.898697 38.310959,92.461334 40.305973,89.879807 
	C41.042984,88.828941 41.494438,87.922256 42.247795,86.854446 
	C43.723160,84.774361 44.896622,82.855392 46.427170,80.921844 
	C50.509293,77.894333 54.234329,74.881416 58.318390,71.879700 
	C60.398746,70.945244 62.143661,70.039810 63.837292,69.046883 
	C70.718040,65.012878 70.927177,64.252174 67.026146,57.637062 
	C67.280563,55.700775 67.510559,54.142284 67.746742,52.541912 
	C69.151062,52.888145 70.050529,53.109905 72.493088,53.712109 
	C70.221275,50.323841 68.717346,48.238579 67.383850,46.049492 
	C65.927727,43.659084 63.013615,41.614342 65.212585,38.194675 
M45.195549,142.544998 
	C45.282352,143.306961 45.369156,144.068909 45.455959,144.830872 
	C46.840824,144.615341 49.045528,144.825943 49.428261,144.089569 
	C50.086937,142.822296 49.610554,140.965073 49.610554,137.925720 
	C47.595676,140.113556 46.676792,141.111328 45.195549,142.544998 
M52.460987,141.712784 
	C52.725368,141.987885 52.986851,142.266174 53.267654,142.523331 
	C53.276402,142.531342 53.485191,142.320908 53.600723,142.212311 
	C53.337158,141.938660 53.073597,141.664993 52.460987,141.712784 
z"/>
<path fill="#998F93" opacity="1.000000" stroke="none" 
	d="
M71.042358,204.448715 
	C68.245575,209.542145 62.752697,210.784073 58.081284,213.752136 
	C55.398483,213.081100 52.391201,212.632568 50.425968,210.959778 
	C44.836807,206.202393 39.684673,200.932922 34.332531,195.894730 
	C33.055286,194.692398 31.668875,193.606033 30.728443,192.518127 
	C31.343843,192.567520 31.563473,192.565109 31.783104,192.562714 
	C31.637877,192.258499 31.492649,191.954300 31.347420,191.650085 
	C25.753611,188.355057 24.305426,182.759674 22.951036,176.987488 
	C22.443295,174.823608 21.069870,172.862823 20.371120,170.278580 
	C21.657557,168.317276 22.410612,166.570251 23.721941,165.520767 
	C26.667540,163.163315 29.890238,161.152100 33.442375,158.966965 
	C36.241554,158.886047 38.598488,158.838089 41.343727,158.944763 
	C45.882496,160.002731 50.067986,161.404419 53.613400,158.768127 
	C50.806984,157.864349 47.867851,156.917816 45.247845,155.892731 
	C46.406425,155.448700 47.245872,155.083221 48.085323,154.717758 
	C47.984562,154.328262 47.883804,153.938766 47.783047,153.549286 
	C40.888069,154.811737 33.993092,156.074203 26.886730,157.279083 
	C26.425829,157.320633 26.176308,157.419754 25.926788,157.518890 
	C26.311415,157.628433 26.696043,157.737961 27.099150,158.138275 
	C27.092793,158.621704 27.067955,158.814362 26.726589,159.118164 
	C24.495359,160.969574 22.580662,162.709869 20.557276,164.548935 
	C19.935217,162.439331 19.427551,160.717667 18.962101,158.598053 
	C19.904284,156.513031 20.521633,154.565125 21.776421,153.205521 
	C23.312510,151.541122 25.615013,150.589218 27.173927,148.939667 
	C30.563229,145.353348 34.162453,145.052109 38.251064,147.475418 
	C42.923458,150.244751 47.850166,150.676346 53.357456,149.017014 
	C54.586407,149.857330 55.455475,150.661606 56.302914,151.488052 
	C58.849339,153.971405 60.984531,157.248276 64.006935,158.799423 
	C71.902939,162.851791 79.676399,161.764114 86.897430,156.496948 
	C88.033058,155.668594 89.654480,155.506226 91.051277,155.035919 
	C91.021385,163.160843 85.961739,168.441895 80.869026,173.926804 
	C78.418655,176.565887 77.066566,180.224701 74.672874,183.856400 
	C73.099861,191.010284 72.071114,197.729492 71.042358,204.448715 
M39.211693,171.753403 
	C42.197720,170.241928 45.183746,168.730453 48.169773,167.218979 
	C47.939404,166.741501 47.709034,166.264038 47.478664,165.786560 
	C41.433460,168.262009 35.388260,170.737442 29.343060,173.212875 
	C29.539108,173.747787 29.735157,174.282700 29.931206,174.817612 
	C32.791935,173.896973 35.652660,172.976318 39.211693,171.753403 
z"/>
<path fill="#958C8F" opacity="1.000000" stroke="none" 
	d="
M22.101650,42.532692 
	C22.101650,42.532692 22.075180,42.491932 22.383739,42.283371 
	C22.810841,41.326385 22.929380,40.577961 23.047920,39.829540 
	C25.744110,35.781364 28.235174,31.567619 31.277296,27.798662 
	C32.061092,26.827595 34.577995,27.255409 37.066635,27.056192 
	C39.491119,26.978674 41.147713,26.885574 42.804306,26.792473 
	C47.134266,28.234091 51.577229,29.415487 55.746891,31.226223 
	C57.857254,32.142673 59.473774,34.196323 61.636292,36.259552 
	C62.431953,39.703758 62.888206,42.627056 63.382587,45.543896 
	C63.863029,48.378540 64.382553,51.206558 64.920624,54.021908 
	C64.956337,54.006332 64.993118,54.075272 64.932297,53.829235 
	C64.531448,53.747570 64.191429,53.911938 63.609287,53.958839 
	C62.931168,53.531143 62.495163,53.220913 61.903206,52.606087 
	C57.406815,44.622936 51.176434,40.014118 41.618977,40.131729 
	C38.472553,41.478291 35.728012,42.849663 32.651440,44.336517 
	C31.180538,48.330505 30.041662,52.209019 28.521637,56.179928 
	C27.953325,62.947140 27.754902,69.621750 27.634968,76.297783 
	C27.631475,76.492157 28.457394,76.701431 28.966488,77.295395 
	C29.433426,80.994011 29.830467,84.301003 29.853874,87.738441 
	C26.947565,87.053436 24.414890,86.237976 21.580973,85.325523 
	C21.191212,84.462540 20.620455,83.198799 20.049698,81.935066 
	C19.368601,76.580338 18.687504,71.225609 18.361210,65.442368 
	C19.973410,65.466461 21.230812,65.919075 22.578892,66.622292 
	C23.004408,67.037743 23.339247,67.202591 23.674088,67.367439 
	C23.480726,66.885742 23.287369,66.404045 23.071709,65.557907 
	C22.051968,62.540302 16.387983,59.971558 22.941463,56.821003 
	C22.985826,55.976265 22.993238,55.493011 23.332602,54.811653 
	C23.143587,50.586590 22.622618,46.559643 22.101650,42.532692 
M25.275814,56.146702 
	C25.394667,56.035267 25.513519,55.923836 25.632372,55.812401 
	C25.512444,55.831207 25.392513,55.850010 25.275814,56.146702 
z"/>
<path fill="#978E91" opacity="1.000000" stroke="none" 
	d="
M124.744736,86.020943 
	C123.391479,86.536095 121.689133,86.707520 120.765450,87.645638 
	C119.320786,89.112877 118.363289,90.936989 116.407524,88.144394 
	C117.600487,84.156364 118.616234,80.683022 119.819191,76.569511 
	C114.589745,77.941071 114.351624,81.654602 113.786827,85.151337 
	C110.099075,85.686111 106.411316,86.220879 102.361496,86.546753 
	C102.004921,85.911507 102.010406,85.485153 102.195328,84.741646 
	C105.612900,78.646271 105.750610,73.246346 100.723244,68.242821 
	C99.948372,67.471619 99.455849,65.823982 99.672821,64.751648 
	C100.608337,60.128220 101.856689,55.568092 102.991165,50.984921 
	C105.725731,50.342037 108.460297,49.699154 111.555954,49.513474 
	C111.917030,58.718632 111.917030,67.466576 111.917030,76.345695 
	C117.316795,70.940773 118.007187,64.385941 116.514473,57.248535 
	C115.943619,54.519005 115.481354,51.766766 114.969612,49.024876 
	C119.570236,44.615997 126.106628,44.972282 131.472076,42.703777 
	C131.486938,43.533951 131.458191,43.999084 131.429428,44.464222 
	C131.647522,44.326523 131.865616,44.188824 132.083710,44.051125 
	C133.002625,44.868008 133.921524,45.684895 134.909210,47.157219 
	C132.519882,51.836170 130.300491,56.031773 127.551407,59.845539 
	C122.599915,66.714676 120.867699,73.777649 124.657532,81.773720 
	C125.210785,82.941017 124.741089,84.593147 124.744736,86.020943 
M120.115173,60.340073 
	C120.277962,61.671814 120.440750,63.003555 120.690918,65.050140 
	C124.671082,58.806183 124.727119,56.185596 121.237190,52.505150 
	C120.842964,54.960915 120.477188,57.239456 120.115173,60.340073 
z"/>
<path fill="#3A3435" opacity="1.000000" stroke="none" 
	d="
M102.682068,50.846039 
	C101.856689,55.568092 100.608337,60.128220 99.672821,64.751648 
	C99.455849,65.823982 99.948372,67.471619 100.723244,68.242821 
	C105.750610,73.246346 105.612900,78.646271 101.867340,84.554810 
	C99.045471,80.399544 100.958710,74.199898 95.435829,71.194801 
	C85.010109,83.696625 81.208954,98.514320 78.863037,113.909233 
	C78.547455,115.980278 77.940689,118.006950 77.474792,120.080391 
	C77.480835,120.106613 77.508919,120.152527 77.508919,120.152527 
	C77.058556,111.729858 75.755814,103.244240 76.372086,94.900352 
	C77.154625,84.305275 83.037468,75.610039 89.810226,67.628983 
	C91.414040,65.739044 93.199707,63.865482 94.244331,61.671398 
	C95.798157,58.407784 96.766975,54.865646 98.061539,51.157509 
	C99.549873,50.817703 100.961418,50.762428 102.682068,50.846039 
z"/>
<path fill="#968D90" opacity="1.000000" stroke="none" 
	d="
M132.715164,86.039062 
	C132.277771,86.303101 131.840393,86.567146 131.016769,86.525711 
	C126.048721,77.665916 126.691666,69.673576 133.040634,62.176098 
	C134.192947,60.815331 135.119019,59.139420 135.709824,57.454781 
	C136.670456,54.715511 137.268204,51.848976 138.019119,49.036156 
	C138.537598,49.043648 139.056061,49.051144 139.924225,49.464157 
	C139.865463,52.954777 138.975388,56.065517 139.137985,59.120224 
	C139.646255,68.668945 140.552078,78.196503 141.199829,88.105980 
	C141.059006,88.993919 141.022141,89.508133 140.985291,90.022354 
	C140.985291,90.022354 140.996628,90.001175 140.735901,89.887100 
	C139.954529,89.526917 139.433853,89.280815 138.913193,89.034721 
	C138.913193,89.034721 138.976990,88.997162 138.933502,88.661026 
	C136.831726,87.562950 134.773453,86.801010 132.715164,86.039062 
z"/>
<path fill="#393434" opacity="1.000000" stroke="none" 
	d="
M158.675674,51.613541 
	C158.569778,53.613213 157.526703,55.626743 158.057205,57.056320 
	C159.377335,60.613663 161.523804,63.853687 163.143936,67.312256 
	C169.248688,80.344429 168.372955,103.155960 161.072784,115.423988 
	C161.072784,105.818825 161.590775,96.715393 160.908493,87.702827 
	C160.365158,80.525627 158.369217,73.456917 156.994339,66.344643 
	C156.000732,61.204685 154.968063,56.072281 153.935883,50.487106 
	C155.430847,50.479012 156.942764,50.920315 158.675674,51.613541 
z"/>
<path fill="#3A3435" opacity="1.000000" stroke="none" 
	d="
M141.303802,87.732262 
	C140.552078,78.196503 139.646255,68.668945 139.137985,59.120224 
	C138.975388,56.065517 139.865463,52.954777 140.312988,49.446129 
	C141.705261,48.962051 143.058426,48.901524 144.697510,48.934868 
	C144.639145,51.695023 143.727203,54.439430 144.080917,57.009655 
	C144.640411,61.074921 145.931046,65.060387 147.173279,68.997269 
	C147.513611,70.075829 148.649780,71.057266 149.652618,71.745300 
	C153.368866,74.294983 155.441772,77.695076 155.163239,82.232368 
	C154.802994,88.101212 154.244171,93.957870 153.314163,99.775658 
	C148.584564,91.993126 153.733643,82.363937 147.924225,74.546432 
	C146.260422,79.130898 144.768219,83.242508 142.854187,87.704437 
	C142.056168,87.947250 141.679993,87.839752 141.303802,87.732262 
z"/>
<path fill="#3C3637" opacity="1.000000" stroke="none" 
	d="
M137.744110,48.923447 
	C137.268204,51.848976 136.670456,54.715511 135.709824,57.454781 
	C135.119019,59.139420 134.192947,60.815331 133.040634,62.176098 
	C126.691666,69.673576 126.048721,77.665916 130.763092,86.557022 
	C128.837967,88.956062 126.874275,89.102272 124.892448,86.313782 
	C124.741089,84.593147 125.210785,82.941017 124.657532,81.773720 
	C120.867699,73.777649 122.599915,66.714676 127.551407,59.845539 
	C130.300491,56.031773 132.519882,51.836170 135.044266,47.439148 
	C135.896713,47.647339 136.682907,48.229038 137.744110,48.923447 
z"/>
<path fill="#3A3536" opacity="1.000000" stroke="none" 
	d="
M52.987690,148.991104 
	C47.850166,150.676346 42.923458,150.244751 38.251064,147.475418 
	C34.162453,145.052109 30.563229,145.353348 27.173927,148.939667 
	C25.615013,150.589218 23.312510,151.541122 21.776421,153.205521 
	C20.521633,154.565125 19.904284,156.513031 18.751047,158.597809 
	C18.497778,158.995529 18.075388,158.991150 18.075388,158.991150 
	C17.945827,156.588379 17.816265,154.185608 18.174799,151.424652 
	C19.152828,150.773285 19.642763,150.480087 20.132694,150.186890 
	C23.146507,146.789932 26.160324,143.392990 30.442434,138.566513 
	C33.643200,137.839066 39.255531,136.563538 44.867863,135.288010 
	C45.015804,135.714249 45.163750,136.140488 45.311695,136.566727 
	C43.724964,137.577850 42.138233,138.588959 39.985649,139.986206 
	C39.329281,141.271439 39.238770,142.170502 39.148258,143.069580 
	C41.695503,144.431519 44.157940,146.003815 46.821331,147.077682 
	C48.456970,147.737152 50.400150,147.633865 52.636223,148.147919 
	C53.040703,148.612198 53.014194,148.801651 52.987690,148.991104 
z"/>
<path fill="#333030" opacity="1.000000" stroke="none" 
	d="
M237.090683,92.776489 
	C236.744827,90.651779 236.543732,88.157494 236.229660,84.261688 
	C233.591263,88.647133 231.441895,92.219734 229.292526,95.792336 
	C228.261963,89.760040 230.314987,84.717819 234.382523,80.757980 
	C237.171524,78.042831 238.068954,75.150177 237.996475,71.474510 
	C237.867706,64.943604 237.995071,58.407650 238.090088,51.500832 
	C238.778091,52.450096 239.944565,53.783669 239.917755,55.092812 
	C239.683868,66.515312 239.275467,77.935120 238.786652,89.350067 
	C238.742157,90.389244 237.774445,91.388901 237.090683,92.776489 
z"/>
<path fill="#3C3637" opacity="1.000000" stroke="none" 
	d="
M114.582016,49.016327 
	C115.481354,51.766766 115.943619,54.519005 116.514473,57.248535 
	C118.007187,64.385941 117.316795,70.940773 111.917030,76.345695 
	C111.917030,67.466576 111.917030,58.718632 111.891014,49.506683 
	C112.641472,49.031052 113.417938,49.019417 114.582016,49.016327 
z"/>
<path fill="#938A8D" opacity="1.000000" stroke="none" 
	d="
M228.226791,29.178402 
	C229.947021,31.658548 231.667236,34.138691 233.577026,37.109623 
	C232.581207,42.595421 228.669205,42.103104 224.981628,41.980576 
	C225.020233,41.976433 225.046326,42.050320 224.917725,41.959465 
	C224.528290,41.681515 224.266464,41.728020 223.757431,42.005070 
	C223.511246,42.002010 223.029633,41.899338 222.913239,41.679092 
	C222.578156,41.191597 222.300995,41.017380 221.898254,40.626694 
	C222.820389,36.773731 223.809616,33.230270 224.856873,29.478924 
	C225.602859,29.412399 226.914825,29.295401 228.226791,29.178402 
z"/>
<path fill="#443F3F" opacity="1.000000" stroke="none" 
	d="
M64.884918,54.037483 
	C64.382553,51.206558 63.863029,48.378540 63.382587,45.543896 
	C62.888206,42.627056 62.431953,39.703758 61.945839,36.405251 
	C62.901207,36.563606 63.869755,37.099991 65.025444,37.915527 
	C63.013615,41.614342 65.927727,43.659084 67.383850,46.049492 
	C68.717346,48.238579 70.221275,50.323841 72.493088,53.712109 
	C70.050529,53.109905 69.151062,52.888145 67.746742,52.541912 
	C67.510559,54.142284 67.280563,55.700775 66.697403,57.521606 
	C65.857811,56.535126 65.371361,55.286304 64.884918,54.037483 
z"/>
<path fill="#3A3536" opacity="1.000000" stroke="none" 
	d="
M228.055023,28.859999 
	C226.914825,29.295401 225.602859,29.412399 224.856873,29.478924 
	C223.809616,33.230270 222.820389,36.773731 221.493668,40.674034 
	C218.136765,41.007195 215.117355,40.983509 211.759903,40.989090 
	C210.614990,40.671585 209.808136,40.324818 209.001266,39.978050 
	C212.545609,39.368706 216.089966,38.759361 220.196213,38.053417 
	C220.486572,34.950703 220.817261,31.417076 221.066940,27.208771 
	C220.985916,26.534092 220.994598,26.063932 220.994598,26.063934 
	C223.290817,26.889822 225.587036,27.715708 228.055023,28.859999 
z"/>
<path fill="#D5CFD1" opacity="1.000000" stroke="none" 
	d="
M105.315804,229.876678 
	C106.189735,227.440674 107.496223,226.088272 110.077644,228.504120 
	C110.845612,229.222855 112.528755,229.060349 113.801460,229.124115 
	C116.979347,229.283325 120.839951,227.519882 122.163544,232.586319 
	C116.238045,233.947266 110.875816,232.464798 105.315804,229.876678 
z"/>
<path fill="#D5CFD1" opacity="1.000000" stroke="none" 
	d="
M126.375450,232.953613 
	C127.134315,232.212921 128.258392,231.079437 129.461761,230.987854 
	C135.708862,230.512405 141.976181,230.302704 148.889740,229.983917 
	C149.543015,229.967392 149.926132,230.047211 149.926132,230.047211 
	C148.797241,230.701340 147.725037,231.770782 146.529144,231.933990 
	C142.464920,232.488724 138.361862,232.803940 134.264008,233.050476 
	C131.777603,233.200058 129.273438,233.054459 126.375450,232.953613 
z"/>
<path fill="#3F3B3B" opacity="1.000000" stroke="none" 
	d="
M17.955463,159.293427 
	C18.075388,158.991150 18.497778,158.995529 18.708832,158.995773 
	C19.427551,160.717667 19.935217,162.439331 20.557276,164.548935 
	C22.580662,162.709869 24.495359,160.969574 27.088301,159.094879 
	C29.511074,158.973633 31.255604,158.986786 33.000137,158.999939 
	C29.890238,161.152100 26.667540,163.163315 23.721941,165.520767 
	C22.410612,166.570251 21.657557,168.317276 20.346237,169.920532 
	C19.306089,166.594147 18.570814,163.094940 17.955463,159.293427 
z"/>
<path fill="#6F6C6D" opacity="1.000000" stroke="none" 
	d="
M241.990448,153.542603 
	C241.422150,153.771423 240.877899,153.543991 240.161987,152.700226 
	C239.313126,150.404648 238.635910,148.725403 237.958679,147.046158 
	C238.222961,143.363541 238.496140,139.681519 238.747025,135.997986 
	C238.843887,134.575943 238.890137,133.150467 239.035706,131.349197 
	C240.076630,136.695328 241.098755,142.410095 241.969040,148.147873 
	C242.213440,149.759247 242.011627,151.438324 241.990448,153.542603 
z"/>
<path fill="#443F3F" opacity="1.000000" stroke="none" 
	d="
M23.999361,111.318993 
	C27.930670,112.149078 31.836081,113.281746 36.379139,114.599350 
	C31.368084,118.964531 27.453356,115.749306 23.274624,114.168274 
	C23.381844,113.113258 23.677654,112.367416 23.999361,111.318993 
z"/>
<path fill="#3F3B3B" opacity="1.000000" stroke="none" 
	d="
M175.491394,55.134392 
	C176.096313,58.602390 176.479721,62.090199 176.863144,65.578003 
	C170.842285,63.429447 172.151901,59.833969 173.537933,55.812569 
	C174.231293,55.294727 174.750610,55.224468 175.491394,55.134392 
z"/>
<path fill="#7B7174" opacity="1.000000" stroke="none" 
	d="
M19.823364,149.879364 
	C19.642763,150.480087 19.152828,150.773285 18.367373,151.118607 
	C15.997888,144.246017 16.430113,137.408752 18.970627,130.300888 
	C19.110893,133.434494 18.991251,136.907196 19.049715,140.376877 
	C19.101387,143.443604 19.351521,146.506989 19.823364,149.879364 
z"/>
<path fill="#484344" opacity="1.000000" stroke="none" 
	d="
M19.770952,82.204201 
	C20.620455,83.198799 21.191212,84.462540 21.580973,85.325523 
	C24.414890,86.237976 26.947565,87.053436 30.090956,87.905251 
	C30.823311,88.291260 30.944952,88.640915 30.615509,88.974274 
	C27.358252,89.637398 23.693020,86.820816 21.565899,91.250229 
	C20.950733,92.314774 20.522617,93.153984 20.094501,93.993202 
	C19.893738,90.153244 19.692972,86.313293 19.770952,82.204201 
z"/>
<path fill="#3F3B3B" opacity="1.000000" stroke="none" 
	d="
M224.943024,41.984726 
	C228.669205,42.103104 232.581207,42.595421 233.840515,37.313133 
	C234.709152,39.139389 235.503906,41.252922 236.160645,43.687012 
	C232.579819,42.573933 229.531952,43.299850 226.385086,45.805332 
	C225.980576,45.914474 225.972290,46.019081 225.872192,45.667465 
	C225.495743,44.205471 225.219376,43.095097 224.943024,41.984726 
z"/>
<path fill="#3F3B3B" opacity="1.000000" stroke="none" 
	d="
M20.133598,94.274094 
	C20.522617,93.153984 20.950733,92.314774 21.665596,91.619896 
	C23.310211,92.351082 24.672071,93.415688 26.024946,93.404388 
	C27.733019,93.390121 29.433765,92.498642 31.086811,92.234840 
	C31.019754,92.652931 31.003559,92.821762 30.987364,92.990601 
	C28.207306,95.225060 25.427246,97.459511 22.354258,99.909180 
	C21.431782,98.267921 20.802238,96.411453 20.133598,94.274094 
z"/>
<path fill="#232121" opacity="1.000000" stroke="none" 
	d="
M22.904510,57.182491 
	C16.387983,59.971558 22.051968,62.540302 22.921623,65.672073 
	C22.793835,66.150688 22.488213,66.371681 22.488213,66.371681 
	C21.230812,65.919075 19.973410,65.466461 18.371208,65.016403 
	C18.354870,61.310993 18.683331,57.603027 19.273840,53.457664 
	C19.535887,53.020264 20.011049,52.997952 20.029572,53.332836 
	C21.000233,54.839310 21.952372,56.010902 22.904510,57.182491 
z"/>
<path fill="#625F60" opacity="1.000000" stroke="none" 
	d="
M195.623230,36.154770 
	C195.653336,38.246426 195.387283,40.487381 195.126114,42.687191 
	C192.758499,42.445175 191.292221,42.295292 189.524841,42.137722 
	C191.258163,40.188046 193.292618,38.246056 195.623230,36.154770 
z"/>
<path fill="#333030" opacity="1.000000" stroke="none" 
	d="
M21.873857,42.685501 
	C22.622618,46.559643 23.143587,50.586590 23.153976,54.558437 
	C22.381273,53.728745 22.119148,52.954159 21.882530,51.914497 
	C21.266918,50.768131 20.625797,49.886845 19.984674,49.005554 
	C20.190348,48.122456 20.396021,47.239353 20.726961,45.684990 
	C20.940168,44.335789 21.028111,43.657848 21.116051,42.979908 
	C21.292723,42.932709 21.469393,42.885513 21.873857,42.685501 
z"/>
<path fill="#625F60" opacity="1.000000" stroke="none" 
	d="
M188.771271,42.241409 
	C187.366592,44.215477 185.610428,46.124443 183.529205,48.082466 
	C184.942688,46.146454 186.681229,44.161385 188.771271,42.241409 
z"/>
<path fill="#584C4E" opacity="1.000000" stroke="none" 
	d="
M19.736713,49.262474 
	C20.625797,49.886845 21.266918,50.768131 21.640644,51.984688 
	C20.919184,52.545952 20.465117,52.771954 20.011049,52.997952 
	C20.011049,52.997952 19.535887,53.020264 19.299690,53.043419 
	C19.205244,51.884178 19.346998,50.701782 19.736713,49.262474 
z"/>
<path fill="#232121" opacity="1.000000" stroke="none" 
	d="
M42.546658,26.562008 
	C41.147713,26.885574 39.491119,26.978674 37.419147,27.026510 
	C38.765514,26.764677 40.527264,26.548109 42.546658,26.562008 
z"/>
<path fill="#232121" opacity="1.000000" stroke="none" 
	d="
M220.605087,26.045044 
	C220.994598,26.063932 220.985916,26.534092 220.992569,26.769123 
	C219.328339,26.993895 217.657455,26.983639 215.576904,26.894566 
	C216.850021,26.552553 218.532806,26.289354 220.605087,26.045044 
z"/>
<path fill="#3F3B3B" opacity="1.000000" stroke="none" 
	d="
M150.279312,230.041306 
	C149.926132,230.047211 149.543015,229.967392 149.347382,229.963745 
	C150.487183,229.661804 151.822617,229.363510 153.542725,229.141693 
	C152.829102,229.490585 151.730804,229.762985 150.279312,230.041306 
z"/>
<path fill="#625F60" opacity="1.000000" stroke="none" 
	d="
M178.094910,52.697117 
	C178.654419,52.680969 179.148590,52.783714 179.642761,52.886459 
	C179.201263,53.311489 178.759766,53.736515 178.163300,53.952950 
	C177.985931,53.434052 177.993011,53.124603 178.094910,52.697117 
z"/>
<path fill="#3F3B3B" opacity="1.000000" stroke="none" 
	d="
M155.351624,228.969635 
	C156.380234,228.633270 157.785965,228.297379 159.569702,228.068100 
	C158.541367,228.439835 157.135056,228.704956 155.351624,228.969635 
z"/>
<path fill="#333030" opacity="1.000000" stroke="none" 
	d="
M98.282532,228.361328 
	C99.252441,228.161743 100.459038,228.197998 101.745819,228.596313 
	C100.723740,228.837967 99.621483,228.717575 98.282532,228.361328 
z"/>
<path fill="#C5BFC1" opacity="1.000000" stroke="none" 
	d="
M209.563171,27.688810 
	C209.013580,28.013058 208.349335,28.043522 207.350784,28.049706 
	C207.827164,27.815290 208.637833,27.605160 209.563171,27.688810 
z"/>
<path fill="#333030" opacity="1.000000" stroke="none" 
	d="
M213.709579,27.013641 
	C213.282654,27.343252 212.535049,27.658098 211.458069,27.903549 
	C211.882095,27.555731 212.635513,27.277304 213.709579,27.013641 
z"/>
<path fill="#333030" opacity="1.000000" stroke="none" 
	d="
M22.823696,39.978714 
	C22.929380,40.577961 22.810841,41.326385 22.371887,42.304581 
	C22.234138,41.732201 22.416805,40.930042 22.823696,39.978714 
z"/>
<path fill="#999094" opacity="1.000000" stroke="none" 
	d="
M20.817978,43.037491 
	C21.028111,43.657848 20.940168,44.335789 20.768024,45.345753 
	C20.629183,44.816875 20.574545,43.955978 20.817978,43.037491 
z"/>
<path fill="#584C4E" opacity="1.000000" stroke="none" 
	d="
M132.051453,43.729095 
	C131.865616,44.188824 131.647522,44.326523 131.429428,44.464222 
	C131.458191,43.999084 131.486938,43.533951 131.736328,42.915806 
	C131.977692,42.977554 131.998444,43.192314 132.051453,43.729095 
z"/>
<path fill="#625F60" opacity="1.000000" stroke="none" 
	d="
M182.851654,48.257370 
	C182.914886,48.657578 182.712982,49.189232 182.254044,49.864288 
	C182.193497,49.468067 182.389999,48.928440 182.851654,48.257370 
z"/>
<path fill="#625F60" opacity="1.000000" stroke="none" 
	d="
M181.734756,50.003181 
	C181.549622,50.271172 181.092087,50.545708 180.350021,50.762547 
	C180.531113,50.473141 180.996719,50.241436 181.734756,50.003181 
z"/>
<path fill="#988F93" opacity="1.000000" stroke="none" 
	d="
M228.999573,189.998840 
	C229.158981,189.758698 229.324890,189.525925 229.490799,189.293152 
	C229.486847,189.542419 229.482895,189.791672 229.251709,190.032822 
	C229.024490,190.024719 229.006058,190.006226 228.999573,189.998840 
z"/>
<path fill="#484344" opacity="1.000000" stroke="none" 
	d="
M207.959137,209.693573 
	C207.921738,209.391159 208.177719,209.087524 208.748688,208.837433 
	C208.793304,209.158096 208.522903,209.425232 207.959137,209.693573 
z"/>
<path fill="#484344" opacity="1.000000" stroke="none" 
	d="
M206.929016,210.790146 
	C206.826492,210.524445 207.001862,210.150925 207.489319,209.735672 
	C207.603226,210.023407 207.405060,210.352859 206.929016,210.790146 
z"/>
<path fill="#060606" opacity="1.000000" stroke="none" 
	d="
M163.814331,134.549530 
	C165.127975,131.682739 166.222000,129.012390 167.969666,126.877037 
	C174.572922,118.809135 186.463211,118.154388 194.613449,125.206398 
	C203.387329,132.798019 204.437439,144.897034 197.039902,153.055695 
	C195.941818,154.266785 194.887421,155.517517 193.914154,157.133453 
	C192.931274,157.370102 191.782928,156.913315 190.772430,157.122482 
	C173.658630,160.665115 163.420517,152.264877 163.814331,134.549530 
M193.200897,133.812103 
	C192.263031,131.386948 191.836731,128.479355 190.184784,126.727631 
	C189.274933,125.762856 185.592056,125.968620 184.438995,127.032951 
	C182.898392,128.454971 181.834549,131.289413 182.017075,133.391281 
	C182.156387,134.995743 184.630371,137.700317 185.923935,137.620361 
	C188.338333,137.471146 190.649612,135.653473 193.200897,133.812103 
z"/>
<path fill="#050505" opacity="1.000000" stroke="none" 
	d="
M77.067886,120.197380 
	C77.508919,120.152527 77.480835,120.106613 77.854919,120.195091 
	C81.798225,121.953468 85.367462,123.623367 89.024094,125.545166 
	C89.607399,126.280678 90.103310,126.764290 90.599220,127.247894 
	C95.445457,134.261841 94.801147,141.575424 91.413193,149.451996 
	C86.426437,152.612976 82.111084,156.678360 77.138023,157.783112 
	C67.422745,159.941315 61.378353,155.362411 55.936985,144.014816 
	C54.716927,130.553986 64.651093,120.131996 77.067886,120.197380 
M85.001587,127.376747 
	C82.269485,125.280266 79.430634,124.998795 76.920837,127.513329 
	C74.537781,129.900879 74.117516,132.853409 76.200165,135.653275 
	C78.302261,138.479294 81.237450,138.989883 84.116943,137.042755 
	C87.644287,134.657547 87.875885,131.436722 85.001587,127.376747 
z"/>
<path fill="#988F93" opacity="1.000000" stroke="none" 
	d="
M88.936691,125.293266 
	C85.367462,123.623367 81.798225,121.953468 77.848877,120.168869 
	C77.940689,118.006950 78.547455,115.980278 78.863037,113.909233 
	C81.208954,98.514320 85.010109,83.696625 95.435829,71.194801 
	C100.958710,74.199898 99.045471,80.399544 101.687897,84.871971 
	C102.010406,85.485153 102.004921,85.911507 101.997070,86.657631 
	C95.283592,92.478821 92.404243,99.963501 90.571625,108.735229 
	C89.738930,114.602493 89.337807,119.947884 88.936691,125.293266 
z"/>
<path fill="#7B7174" opacity="1.000000" stroke="none" 
	d="
M55.696022,144.210938 
	C61.378353,155.362411 67.422745,159.941315 77.138023,157.783112 
	C82.111084,156.678360 86.426437,152.612976 91.374817,149.842819 
	C91.706161,151.385422 91.701744,152.970856 91.374298,154.796112 
	C89.654480,155.506226 88.033058,155.668594 86.897430,156.496948 
	C79.676399,161.764114 71.902939,162.851791 64.006935,158.799423 
	C60.984531,157.248276 58.849339,153.971405 56.302914,151.488052 
	C55.455475,150.661606 54.586407,149.857330 53.357456,149.017014 
	C53.014194,148.801651 53.040703,148.612198 53.054398,148.135742 
	C53.846077,146.701538 54.650566,145.554291 55.696022,144.210938 
z"/>
<path fill="#D4CED0" opacity="1.000000" stroke="none" 
	d="
M131.083481,154.468811 
	C133.797043,154.102631 136.430115,153.383026 139.610641,152.513794 
	C139.096420,151.996735 139.537109,152.255737 139.507294,152.437607 
	C139.086929,155.001358 131.898590,162.517746 129.527908,162.885040 
	C128.882767,162.984985 128.198883,162.984680 127.551445,162.895248 
	C124.036606,162.409882 118.707886,155.511826 118.762131,151.098877 
	C119.570251,151.715393 120.346657,152.049164 120.723824,152.638458 
	C122.791161,155.868561 124.823517,155.365158 126.950783,152.738815 
	C129.527206,149.557907 130.608734,150.840286 131.083481,154.468811 
z"/>
<path fill="#6F6C6D" opacity="1.000000" stroke="none" 
	d="
M138.893509,89.422882 
	C139.433853,89.280815 139.954529,89.526917 140.747223,89.883057 
	C143.269379,96.471786 145.548035,102.940819 147.745987,109.437164 
	C148.194839,110.763786 148.340714,112.192917 148.337280,113.771843 
	C144.990158,105.916275 141.931992,97.863663 138.893509,89.422882 
z"/>
<path fill="#3F3B3B" opacity="1.000000" stroke="none" 
	d="
M113.841263,85.469650 
	C114.351624,81.654602 114.589745,77.941071 119.819191,76.569511 
	C118.616234,80.683022 117.600487,84.156364 116.274170,87.839020 
	C115.274300,87.294876 114.584991,86.541420 113.841263,85.469650 
z"/>
<path fill="#858081" opacity="1.000000" stroke="none" 
	d="
M89.024094,125.545166 
	C89.337807,119.947884 89.738930,114.602493 90.515503,109.143875 
	C90.835663,114.783089 90.780373,120.535522 90.662155,126.767929 
	C90.103310,126.764290 89.607399,126.280678 89.024094,125.545166 
z"/>
<path fill="#625F60" opacity="1.000000" stroke="none" 
	d="
M71.365707,204.225098 
	C72.071114,197.729492 73.099861,191.010284 74.498657,184.182953 
	C74.589424,187.275925 74.494278,190.506851 73.981430,193.670090 
	C73.417824,197.146393 72.469673,200.560349 71.365707,204.225098 
z"/>
<path fill="#F6C4C9" opacity="1.000000" stroke="none" 
	d="
M132.778854,145.079376 
	C132.404282,145.326508 132.029709,145.573639 130.994904,145.913696 
	C129.142014,146.044159 127.949348,146.081665 126.455620,145.885086 
	C125.950226,144.735764 125.745895,143.820526 126.010490,142.956360 
	C128.664963,143.054672 130.850510,143.101959 132.971481,143.467300 
	C132.864227,144.216705 132.821533,144.648041 132.778854,145.079376 
z"/>
<path fill="#E3959C" opacity="1.000000" stroke="none" 
	d="
M126.756683,146.119186 
	C127.949348,146.081665 129.142014,146.044159 130.788605,146.004303 
	C131.163010,150.814072 129.312836,151.018188 126.283081,147.430115 
	C126.620605,146.714890 126.751152,146.447586 126.756683,146.119186 
z"/>
<path fill="#6F6C6D" opacity="1.000000" stroke="none" 
	d="
M132.873810,86.341873 
	C134.773453,86.801010 136.831726,87.562950 138.924759,88.696999 
	C136.983826,88.260956 135.008148,87.452820 132.873810,86.341873 
z"/>
<path fill="#584C4E" opacity="1.000000" stroke="none" 
	d="
M133.036057,143.149231 
	C130.850510,143.101959 128.664963,143.054672 126.016304,142.977982 
	C125.553200,142.948563 125.546707,142.991226 125.412392,142.786789 
	C125.278076,142.582352 125.157654,142.108170 125.157654,142.108170 
	C127.453003,142.073837 129.748352,142.039490 132.514282,142.305588 
	C133.001923,142.787094 133.018982,142.968155 133.036057,143.149231 
z"/>
<path fill="#635355" opacity="1.000000" stroke="none" 
	d="
M125.546707,142.991226 
	C125.546707,142.991226 125.553200,142.948563 125.547386,142.926941 
	C125.745895,143.820526 125.950226,144.735764 126.455620,145.885086 
	C126.751152,146.447586 126.620605,146.714890 126.219940,147.096436 
	C125.249138,146.304764 124.423424,145.337753 123.832123,144.048370 
	C124.559929,143.481064 125.053322,143.236145 125.546707,142.991226 
z"/>
<path fill="#C5BFC1" opacity="1.000000" stroke="none" 
	d="
M132.971481,143.467300 
	C133.018982,142.968155 133.001923,142.787094 132.944382,142.336258 
	C135.623306,142.539993 135.446869,143.614182 133.150909,145.065125 
	C132.821533,144.648041 132.864227,144.216705 132.971481,143.467300 
z"/>
<path fill="#C5BFC1" opacity="1.000000" stroke="none" 
	d="
M125.412392,142.786789 
	C125.053322,143.236145 124.559929,143.481064 123.628624,143.716812 
	C123.667816,143.136932 124.144928,142.566223 124.889847,142.051834 
	C125.157654,142.108170 125.278076,142.582352 125.412392,142.786789 
z"/>
<path fill="#D5CFD1" opacity="1.000000" stroke="none" 
	d="
M208.943451,40.249336 
	C209.808136,40.324818 210.614990,40.671585 212.094727,41.082989 
	C215.491852,42.746559 218.216095,44.345497 220.954956,45.955254 
	C220.969589,45.966072 220.960907,45.962849 220.612915,46.116936 
	C217.563339,47.019794 214.861725,47.768566 211.136429,48.801067 
	C214.685303,51.120934 216.962296,52.925182 215.930008,56.572880 
	C215.757019,57.184143 217.237503,58.263332 217.964920,59.507347 
	C217.997223,63.927498 218.018585,67.966614 217.996979,72.291504 
	C217.646637,73.033035 217.339249,73.488792 217.028397,73.956589 
	C217.024933,73.968636 217.018600,73.957779 216.849121,73.689606 
	C213.367325,71.210190 213.099243,73.534042 212.550613,75.917404 
	C209.755844,75.612518 207.309570,75.349380 204.863312,75.086243 
	C204.863312,75.086243 204.436264,75.027100 204.178772,74.662064 
	C202.926987,73.547798 201.932724,72.798569 200.938446,72.049339 
	C200.938446,72.049339 201.002441,72.006317 200.947968,71.671539 
	C197.561584,66.931343 196.318329,62.010620 196.920364,56.508472 
	C197.045547,55.364365 196.215561,54.115746 195.825745,52.915291 
	C197.788559,46.264938 204.115250,44.212696 208.943451,40.249336 
z"/>
<path fill="#3A3435" opacity="1.000000" stroke="none" 
	d="
M237.669769,146.879974 
	C238.635910,148.725403 239.313126,150.404648 239.986359,152.456970 
	C234.859253,153.196640 229.589233,152.948181 224.659653,154.125305 
	C220.748932,155.059113 217.406311,158.171463 213.534714,159.524872 
	C209.468979,160.946121 205.262604,160.739395 201.960953,156.848328 
	C204.933395,156.073257 207.419693,155.424957 209.960968,154.384430 
	C210.015930,153.992188 209.999680,154.022293 209.999680,154.022293 
	C216.439468,152.561127 222.879257,151.099960 230.251587,149.427200 
	C227.681442,146.322708 225.654343,143.874191 223.061584,141.104889 
	C221.675064,140.522751 220.854202,140.261398 220.033340,140.000031 
	C216.256699,139.261002 212.480057,138.521973 207.219986,137.492661 
	C209.777710,136.340698 211.295242,135.272339 212.950119,134.979034 
	C219.833572,133.759109 225.712952,135.909195 230.718582,140.726227 
	C232.868790,142.795410 235.155930,144.722290 237.669769,146.879974 
M224.557785,139.511597 
	C224.557785,139.511597 224.480652,139.551376 224.557785,139.511597 
z"/>
<path fill="#F6C4C9" opacity="1.000000" stroke="none" 
	d="
M229.203583,76.845955 
	C227.508102,83.457802 225.812622,90.069649 223.777130,98.007484 
	C221.456589,94.839684 219.884583,92.693726 218.162354,89.871796 
	C218.008682,88.464577 218.005249,87.733337 218.352081,86.931549 
	C219.443817,85.834045 220.620743,84.897545 220.855972,83.765396 
	C222.352646,76.561836 223.960724,69.354645 224.863251,62.065823 
	C225.308838,58.467255 224.325974,54.691811 223.987885,50.614452 
	C223.967636,49.466927 223.948959,48.701344 224.290375,47.909355 
	C225.132156,47.878006 225.613831,47.873062 226.095520,47.868118 
	C227.085663,50.046509 228.075790,52.224895 229.103455,55.169876 
	C229.161850,62.906296 229.182724,69.876122 229.203583,76.845955 
z"/>
<path fill="#C8C1C3" opacity="1.000000" stroke="none" 
	d="
M195.487930,52.988625 
	C196.215561,54.115746 197.045547,55.364365 196.920364,56.508472 
	C196.318329,62.010620 197.561584,66.931343 200.922302,71.700592 
	C197.314667,70.128876 193.461853,68.489853 190.166992,66.086060 
	C189.109970,65.314888 188.739624,62.129547 189.435104,60.738861 
	C190.839981,57.929771 193.189926,55.593334 195.487930,52.988625 
z"/>
<path fill="#EEA5AC" opacity="1.000000" stroke="none" 
	d="
M218.001831,87.002090 
	C218.005249,87.733337 218.008682,88.464577 218.016541,89.560051 
	C216.486267,88.133484 214.951569,86.342690 213.342194,83.984558 
	C214.278519,81.542961 215.629120,79.650383 212.987762,77.986443 
	C213.001572,77.999046 212.965485,77.990303 213.314209,77.933456 
	C214.781494,76.570328 215.900040,75.264053 217.018600,73.957779 
	C217.018600,73.957779 217.024933,73.968636 217.069000,74.300751 
	C218.063461,75.078934 219.013885,75.524994 219.965179,76.371826 
	C219.311310,80.182426 218.656570,83.592262 218.001831,87.002090 
z"/>
<path fill="#232121" opacity="1.000000" stroke="none" 
	d="
M217.755936,171.257538 
	C215.064087,169.966675 212.718918,168.827103 210.373764,167.687515 
	C210.601868,167.168106 210.829971,166.648682 211.058075,166.129272 
	C216.790131,168.471725 222.522186,170.814178 228.254257,173.156631 
	C227.994171,173.818680 227.734085,174.480728 227.473999,175.142776 
	C224.350204,173.898117 221.226425,172.653473 217.755936,171.257538 
z"/>
<path fill="#635355" opacity="1.000000" stroke="none" 
	d="
M229.571350,76.748596 
	C229.182724,69.876122 229.161850,62.906296 229.195175,55.559662 
	C229.677048,55.413445 230.481888,55.651165 230.477692,55.873589 
	C230.346771,62.800388 230.136871,69.725693 229.571350,76.748596 
z"/>
<path fill="#E3959C" opacity="1.000000" stroke="none" 
	d="
M226.078690,47.539551 
	C225.613831,47.873062 225.132156,47.878006 224.022430,47.782593 
	C222.576370,47.102966 221.758347,46.523701 220.940338,45.944435 
	C218.216095,44.345497 215.491852,42.746559 212.432770,41.053726 
	C215.117355,40.983509 218.136765,41.007195 221.560760,40.983540 
	C222.300995,41.017380 222.578156,41.191597 222.891754,42.076416 
	C223.981888,43.802349 224.977097,44.910713 225.972290,46.019081 
	C225.972290,46.019081 225.980576,45.914474 226.031906,45.903687 
	C226.076111,46.332256 226.068985,46.771618 226.078690,47.539551 
z"/>
<path fill="#C8C1C3" opacity="1.000000" stroke="none" 
	d="
M204.924713,75.407257 
	C207.309570,75.349380 209.755844,75.612518 212.580444,76.255501 
	C212.961014,77.087006 212.963242,77.538651 212.965485,77.990303 
	C212.965485,77.990303 213.001572,77.999046 212.717377,78.119431 
	C211.612991,78.808006 210.792831,79.376190 209.938721,79.669846 
	C209.280273,79.250099 208.655746,79.104874 208.031235,78.959648 
	C207.016190,77.882523 206.001160,76.805397 204.924713,75.407257 
z"/>
<path fill="#E3959C" opacity="1.000000" stroke="none" 
	d="
M209.972656,79.944366 
	C210.792831,79.376190 211.612991,78.808006 212.703552,78.106827 
	C215.629120,79.650383 214.278519,81.542961 213.134827,83.722832 
	C212.086411,83.107567 211.170670,82.186691 210.109924,80.799210 
	C209.964905,80.332588 209.945755,79.984207 209.962677,79.982628 
	C209.979584,79.981049 209.972656,79.944366 209.972656,79.944366 
z"/>
<path fill="#3C3637" opacity="1.000000" stroke="none" 
	d="
M220.071686,140.310120 
	C220.854202,140.261398 221.675064,140.522751 222.795593,140.918777 
	C221.689606,143.737976 220.865692,142.414307 220.071686,140.310120 
z"/>
<path fill="#C8C1C3" opacity="1.000000" stroke="none" 
	d="
M200.990128,72.386589 
	C201.932724,72.798569 202.926987,73.547798 203.965179,74.632782 
	C203.020004,74.220299 202.030914,73.472069 200.990128,72.386589 
z"/>
<path fill="#D5CFD1" opacity="1.000000" stroke="none" 
	d="
M208.141205,79.180939 
	C208.655746,79.104874 209.280273,79.250099 209.938721,79.669846 
	C209.972656,79.944366 209.979584,79.981049 209.736099,79.980934 
	C209.492615,79.980820 209.038757,79.978928 209.038757,79.978928 
	C208.715988,79.868958 208.453476,79.676720 208.141205,79.180939 
z"/>
<path fill="#6F6C6D" opacity="1.000000" stroke="none" 
	d="
M141.199829,88.105980 
	C141.679993,87.839752 142.056168,87.947250 142.726974,88.041687 
	C142.557449,88.672653 142.093307,89.316673 141.307220,89.991524 
	C141.022141,89.508133 141.059006,88.993919 141.199829,88.105980 
z"/>
<path fill="#3A3435" opacity="1.000000" stroke="none" 
	d="
M207.607727,138.603561 
	C207.117493,138.787964 206.844513,138.728378 206.571533,138.668808 
	C206.627457,138.434219 206.683380,138.199646 206.739304,137.965057 
	C207.101196,138.096573 207.463089,138.228073 207.607727,138.603561 
z"/>
<path fill="#3A3435" opacity="1.000000" stroke="none" 
	d="
M210.031250,153.982864 
	C210.046570,153.973541 209.725098,153.866653 209.725098,153.866653 
	C209.725098,153.866653 209.871796,153.889389 209.935730,153.955841 
	C209.999680,154.022293 210.015930,153.992188 210.031250,153.982864 
z"/>
<path fill="#C8C1C3" opacity="1.000000" stroke="none" 
	d="
M209.121109,80.181747 
	C209.038757,79.978928 209.492615,79.980820 209.719177,79.982513 
	C209.945755,79.984207 209.964905,80.332588 209.965057,80.504578 
	C209.638580,80.768990 209.384674,80.671654 209.121109,80.181747 
z"/>
<path fill="#D4CED0" opacity="1.000000" stroke="none" 
	d="
M42.020855,40.156548 
	C51.176434,40.014118 57.406815,44.622936 61.884384,53.065807 
	C60.667469,59.842918 59.313423,65.855713 57.959370,71.868500 
	C54.234329,74.881416 50.509293,77.894333 46.261665,80.606842 
	C43.363247,77.948166 45.478264,71.932037 39.385971,72.715195 
	C39.911068,70.755722 40.395107,68.949448 40.918442,66.807495 
	C40.291576,65.649307 39.625420,64.826805 39.118088,63.694054 
	C39.543991,62.278080 39.811081,61.172348 40.327530,59.863567 
	C41.970142,56.128090 43.363400,52.595661 45.059555,48.295261 
	C42.714451,47.902691 39.893986,47.430546 37.047638,46.713398 
	C37.021759,46.468395 36.961315,45.979382 37.127834,45.688347 
	C38.869854,43.650391 40.445354,41.903469 42.020855,40.156548 
z"/>
<path fill="#F1C0C5" opacity="1.000000" stroke="none" 
	d="
M31.296497,93.116562 
	C31.003559,92.821762 31.019754,92.652931 31.383579,92.093536 
	C31.782576,91.093452 31.833942,90.483955 31.829185,89.630821 
	C31.511198,89.237396 31.249334,89.087601 30.994247,88.970512 
	C31.001026,89.003220 31.066591,88.990570 31.066593,88.990570 
	C30.944952,88.640915 30.823311,88.291260 30.464592,87.774796 
	C29.830467,84.301003 29.433426,80.994011 29.003773,76.835800 
	C28.948372,69.352226 28.925581,62.719879 28.902788,56.087532 
	C30.041662,52.209019 31.180538,48.330505 32.657551,44.757645 
	C33.012344,47.056847 33.028999,49.050400 33.038292,51.411102 
	C33.039165,52.514492 33.047409,53.250729 32.772419,54.279556 
	C32.674797,59.665997 32.122192,64.926155 33.223316,69.813751 
	C34.778954,76.718819 33.763035,84.660339 40.020412,90.023979 
	C38.310959,92.461334 36.601501,94.898697 34.761990,97.521492 
	C33.621990,95.976028 32.613811,94.609283 31.296497,93.116562 
z"/>
<path fill="#F5B4BA" opacity="1.000000" stroke="none" 
	d="
M40.305973,89.879807 
	C33.763035,84.660339 34.778954,76.718819 33.223316,69.813751 
	C32.122192,64.926155 32.674797,59.665997 33.078392,54.311852 
	C34.421204,54.371540 35.174809,54.691528 35.931602,55.343369 
	C35.949478,56.117458 35.964172,56.559692 35.716026,57.288116 
	C35.941452,60.069958 36.429722,62.565617 36.926155,65.377029 
	C36.922115,66.113762 36.909912,66.534737 36.656700,67.252853 
	C37.372181,73.167313 38.223370,78.806496 39.381584,84.381912 
	C39.591774,85.393700 41.058979,86.144356 41.945885,87.015564 
	C41.494438,87.922256 41.042984,88.828941 40.305973,89.879807 
z"/>
<path fill="#EEA5AC" opacity="1.000000" stroke="none" 
	d="
M42.247791,86.854446 
	C41.058979,86.144356 39.591774,85.393700 39.381584,84.381912 
	C38.223370,78.806496 37.372181,73.167313 36.956581,67.293900 
	C38.624706,67.072929 39.751926,67.108047 40.879150,67.143173 
	C40.395107,68.949448 39.911068,70.755722 39.385971,72.715195 
	C45.478264,71.932037 43.363247,77.948166 45.904579,80.621429 
	C44.896622,82.855392 43.723160,84.774361 42.247791,86.854446 
z"/>
<path fill="#C5BFC1" opacity="1.000000" stroke="none" 
	d="
M58.318390,71.879707 
	C59.313423,65.855713 60.667469,59.842918 62.040337,53.370407 
	C62.495163,53.220913 62.931168,53.531143 63.894894,54.146706 
	C64.612778,54.326450 64.802948,54.200863 64.993118,54.075272 
	C64.993118,54.075272 64.956337,54.006332 64.920624,54.021908 
	C65.371361,55.286304 65.857811,56.535126 66.672989,57.899399 
	C70.927177,64.252174 70.718040,65.012878 63.837292,69.046883 
	C62.143661,70.039810 60.398746,70.945244 58.318390,71.879707 
z"/>
<path fill="#3F3B3B" opacity="1.000000" stroke="none" 
	d="
M83.986542,55.969353 
	C86.187332,59.510086 86.850990,62.878700 83.012230,65.969841 
	C79.888916,60.803082 80.043228,57.357899 83.660629,56.051865 
	C84.025497,56.022408 84.012001,55.972927 83.986542,55.969353 
z"/>
<path fill="#7B7174" opacity="1.000000" stroke="none" 
	d="
M45.476727,142.327057 
	C46.676792,141.111328 47.595676,140.113556 49.610554,137.925720 
	C49.610554,140.965073 50.086937,142.822296 49.428261,144.089569 
	C49.045528,144.825943 46.840824,144.615341 45.455959,144.830872 
	C45.369156,144.068909 45.282352,143.306961 45.476727,142.327057 
z"/>
<path fill="#7B7174" opacity="1.000000" stroke="none" 
	d="
M39.488853,143.043976 
	C39.238770,142.170502 39.329281,141.271439 39.714558,140.189774 
	C40.786049,140.560242 41.562778,141.113297 42.954140,142.103989 
	C41.623116,142.493484 40.726284,142.755920 39.488853,143.043976 
z"/>
<path fill="#7B7174" opacity="1.000000" stroke="none" 
	d="
M52.635509,141.552063 
	C53.073597,141.664993 53.337158,141.938660 53.600723,142.212311 
	C53.485191,142.320908 53.276402,142.531342 53.267654,142.523331 
	C52.986851,142.266174 52.725368,141.987885 52.635509,141.552063 
z"/>
<path fill="#232121" opacity="1.000000" stroke="none" 
	d="
M33.442375,158.966980 
	C31.255604,158.986786 29.511074,158.973633 27.404831,158.983749 
	C27.067955,158.814362 27.092793,158.621704 27.119183,158.011322 
	C27.120733,157.593597 27.098114,157.336670 27.098114,157.336670 
	C33.993092,156.074203 40.888069,154.811737 47.783047,153.549286 
	C47.883804,153.938766 47.984562,154.328262 48.085323,154.717758 
	C47.245872,155.083221 46.406425,155.448700 44.916710,155.927429 
	C43.162766,156.957169 42.059093,157.873642 40.955421,158.790115 
	C38.598488,158.838089 36.241554,158.886047 33.442375,158.966980 
z"/>
<path fill="#232121" opacity="1.000000" stroke="none" 
	d="
M38.862541,171.904541 
	C35.652660,172.976318 32.791935,173.896973 29.931206,174.817612 
	C29.735157,174.282700 29.539108,173.747787 29.343060,173.212875 
	C35.388260,170.737442 41.433460,168.262009 47.478664,165.786560 
	C47.709034,166.264038 47.939404,166.741501 48.169773,167.218979 
	C45.183746,168.730453 42.197720,170.241928 38.862541,171.904541 
z"/>
<path fill="#3C3637" opacity="1.000000" stroke="none" 
	d="
M41.343727,158.944763 
	C42.059093,157.873642 43.162766,156.957169 44.597580,156.005997 
	C47.867851,156.917816 50.806984,157.864349 53.613400,158.768127 
	C50.067986,161.404419 45.882496,160.002731 41.343727,158.944763 
z"/>
<path fill="#3F3B3B" opacity="1.000000" stroke="none" 
	d="
M26.886730,157.279083 
	C27.098114,157.336670 27.120733,157.593597 27.100700,157.720551 
	C26.696043,157.737961 26.311415,157.628433 25.926788,157.518890 
	C26.176308,157.419754 26.425829,157.320633 26.886730,157.279083 
z"/>
<path fill="#47704C" opacity="1.000000" stroke="none" 
	d="
M31.229073,191.770874 
	C31.492649,191.954300 31.637877,192.258499 31.783104,192.562714 
	C31.563473,192.565109 31.343843,192.567520 31.001482,192.353821 
	C30.878750,192.137741 31.110722,191.891647 31.229073,191.770874 
z"/>
<path fill="#F5B4BA" opacity="1.000000" stroke="none" 
	d="
M33.045658,51.043945 
	C33.028999,49.050400 33.012344,47.056847 32.989578,44.642166 
	C35.728012,42.849663 38.472553,41.478291 41.618977,40.131729 
	C40.445354,41.903469 38.869854,43.650391 36.927986,45.816723 
	C36.308685,46.443741 36.133831,46.703846 36.031143,47.346985 
	C36.023754,48.118317 36.022263,48.559101 35.765709,49.180275 
	C34.688980,49.921757 33.867317,50.482853 33.045658,51.043945 
z"/>
<path fill="#584C4E" opacity="1.000000" stroke="none" 
	d="
M28.521637,56.179928 
	C28.925581,62.719879 28.948372,69.352226 28.933876,76.444168 
	C28.457394,76.701431 27.631475,76.492157 27.634968,76.297783 
	C27.754902,69.621750 27.953325,62.947140 28.521637,56.179928 
z"/>
<path fill="#858081" opacity="1.000000" stroke="none" 
	d="
M20.029572,53.332836 
	C20.465117,52.771954 20.919184,52.545952 21.615135,52.249760 
	C22.119148,52.954159 22.381273,53.728745 22.822025,54.756546 
	C22.993238,55.493011 22.985826,55.976265 22.941463,56.821003 
	C21.952372,56.010902 21.000233,54.839310 20.029572,53.332836 
z"/>
<path fill="#858081" opacity="1.000000" stroke="none" 
	d="
M25.274200,56.007759 
	C25.392513,55.850010 25.512444,55.831207 25.632372,55.812401 
	C25.513519,55.923836 25.394667,56.035267 25.274200,56.007759 
z"/>
<path fill="#232121" opacity="1.000000" stroke="none" 
	d="
M22.943922,66.036514 
	C23.287369,66.404045 23.480726,66.885742 23.674088,67.367439 
	C23.339247,67.202591 23.004408,67.037743 22.578892,66.622292 
	C22.488213,66.371681 22.793835,66.150688 22.943922,66.036514 
z"/>
<path fill="#443F3F" opacity="1.000000" stroke="none" 
	d="
M64.932297,53.829235 
	C64.802948,54.200863 64.612778,54.326450 64.137009,54.264172 
	C64.191429,53.911938 64.531448,53.747570 64.932297,53.829235 
z"/>
<path fill="#484344" opacity="1.000000" stroke="none" 
	d="
M120.113297,59.929035 
	C120.477188,57.239456 120.842964,54.960915 121.237190,52.505150 
	C124.727119,56.185596 124.671082,58.806183 120.690918,65.050140 
	C120.440750,63.003555 120.277962,61.671814 120.113297,59.929035 
z"/>
<path fill="#F5B9BF" opacity="1.000000" stroke="none" 
	d="
M225.872192,45.667465 
	C224.977097,44.910713 223.981888,43.802349 223.008163,42.296661 
	C223.029633,41.899338 223.511246,42.002010 224.010849,42.193798 
	C224.689087,42.273830 224.867706,42.162075 225.046326,42.050320 
	C225.046326,42.050320 225.020233,41.976433 224.981628,41.980579 
	C225.219376,43.095097 225.495743,44.205471 225.872192,45.667465 
z"/>
<path fill="#3F3B3B" opacity="1.000000" stroke="none" 
	d="
M224.917725,41.959465 
	C224.867706,42.162075 224.689087,42.273830 224.257034,42.196857 
	C224.266464,41.728020 224.528290,41.681515 224.917725,41.959465 
z"/>
<path fill="#938A8D" opacity="1.000000" stroke="none" 
	d="
M31.885311,89.874451 
	C31.833942,90.483955 31.782576,91.093452 31.434441,91.844269 
	C29.433765,92.498642 27.733019,93.390121 26.024946,93.404388 
	C24.672071,93.415688 23.310211,92.351082 21.852646,91.394569 
	C23.693020,86.820816 27.358252,89.637398 30.615509,88.974274 
	C31.066591,88.990570 31.001026,89.003220 31.090500,89.173264 
	C31.353874,89.601631 31.588987,89.778679 31.885311,89.874451 
z"/>
<path fill="#E9EDF2" opacity="1.000000" stroke="none" 
	d="
M193.102356,134.171082 
	C190.649612,135.653473 188.338333,137.471146 185.923935,137.620361 
	C184.630371,137.700317 182.156387,134.995743 182.017075,133.391281 
	C181.834549,131.289413 182.898392,128.454971 184.438995,127.032951 
	C185.592056,125.968620 189.274933,125.762856 190.184784,126.727631 
	C191.836731,128.479355 192.263031,131.386948 193.102356,134.171082 
z"/>
<path fill="#E9EDF2" opacity="1.000000" stroke="none" 
	d="
M85.272095,127.672684 
	C87.875885,131.436722 87.644287,134.657547 84.116943,137.042755 
	C81.237450,138.989883 78.302261,138.479294 76.200165,135.653275 
	C74.117516,132.853409 74.537781,129.900879 76.920837,127.513329 
	C79.430634,124.998795 82.269485,125.280266 85.272095,127.672684 
z"/>
<path fill="#EEA5AC" opacity="1.000000" stroke="none" 
	d="
M220.954956,45.955254 
	C221.758347,46.523701 222.576370,47.102966 223.662338,47.808998 
	C223.948959,48.701344 223.967636,49.466927 223.714722,50.920067 
	C223.293930,53.545204 223.315231,55.514465 222.962219,57.414165 
	C222.055130,62.295414 220.982010,67.145805 219.652496,72.008331 
	C218.899796,72.007332 218.469879,72.006531 218.039948,72.005722 
	C218.018585,67.966614 217.997223,63.927498 218.046417,59.132477 
	C219.064941,54.238663 220.012924,50.100758 220.960907,45.962849 
	C220.960907,45.962849 220.969589,45.966072 220.954956,45.955254 
z"/>
<path fill="#ED9CA4" opacity="1.000000" stroke="none" 
	d="
M220.612915,46.116936 
	C220.012924,50.100758 219.064941,54.238663 218.035477,58.751442 
	C217.237503,58.263332 215.757019,57.184143 215.930008,56.572880 
	C216.962296,52.925182 214.685303,51.120934 211.136429,48.801067 
	C214.861725,47.768566 217.563339,47.019794 220.612915,46.116936 
z"/>
<path fill="#E3959C" opacity="1.000000" stroke="none" 
	d="
M213.314209,77.933456 
	C212.963242,77.538651 212.961014,77.087006 212.928955,76.297256 
	C213.099243,73.534042 213.367325,71.210190 216.849121,73.689606 
	C215.900040,75.264053 214.781494,76.570328 213.314209,77.933456 
z"/>
<path fill="#E3959C" opacity="1.000000" stroke="none" 
	d="
M217.996979,72.291504 
	C218.469879,72.006531 218.899796,72.007332 219.667572,72.404648 
	C219.991714,73.857780 219.978012,74.914413 219.964294,75.971046 
	C219.013885,75.524994 218.063461,75.078934 217.072449,74.288712 
	C217.339249,73.488792 217.646637,73.033035 217.996979,72.291504 
z"/>
<path fill="#3C3637" opacity="1.000000" stroke="none" 
	d="
M224.519226,139.531494 
	C224.480652,139.551376 224.557785,139.511597 224.519226,139.531494 
z"/>
<path fill="#F5B9BF" opacity="1.000000" stroke="none" 
	d="
M219.965179,76.371826 
	C219.978012,74.914413 219.991714,73.857780 219.990341,72.404839 
	C220.982010,67.145805 222.055130,62.295414 222.962219,57.414165 
	C223.315231,55.514465 223.293930,53.545204 223.716293,51.302013 
	C224.325974,54.691811 225.308838,58.467255 224.863251,62.065823 
	C223.960724,69.354645 222.352646,76.561836 220.855972,83.765396 
	C220.620743,84.897545 219.443817,85.834045 218.352081,86.931549 
	C218.656570,83.592262 219.311310,80.182426 219.965179,76.371826 
z"/>
<path fill="#ED9CA4" opacity="1.000000" stroke="none" 
	d="
M36.020771,48.999889 
	C36.022263,48.559101 36.023754,48.118317 36.290234,47.335526 
	C36.727989,46.981812 36.900757,46.970108 37.073521,46.958401 
	C39.893986,47.430546 42.714451,47.902691 45.059555,48.295261 
	C43.363400,52.595661 41.970142,56.128090 40.058960,59.659805 
	C38.353642,58.773373 37.166252,57.887650 35.978867,57.001930 
	C35.964172,56.559692 35.949478,56.117458 36.297729,55.255756 
	C38.505116,52.665215 39.241135,50.615662 36.020771,48.999889 
z"/>
<path fill="#EEA5AC" opacity="1.000000" stroke="none" 
	d="
M35.716026,57.288116 
	C37.166252,57.887650 38.353642,58.773373 39.809601,59.862854 
	C39.811081,61.172348 39.543991,62.278080 38.819176,63.725098 
	C37.880295,64.398010 37.399139,64.729637 36.917988,65.061272 
	C36.429722,62.565617 35.941452,60.069958 35.716026,57.288116 
z"/>
<path fill="#ED9CA4" opacity="1.000000" stroke="none" 
	d="
M36.926155,65.377029 
	C37.399139,64.729637 37.880295,64.398010 38.660358,64.035339 
	C39.625420,64.826805 40.291576,65.649307 40.918442,66.807495 
	C39.751926,67.108047 38.624706,67.072929 37.197598,66.996765 
	C36.909912,66.534737 36.922115,66.113762 36.926155,65.377029 
z"/>
<path fill="#EEA5AC" opacity="1.000000" stroke="none" 
	d="
M37.047638,46.713398 
	C36.900757,46.970108 36.727989,46.981812 36.296135,47.004982 
	C36.133831,46.703846 36.308685,46.443741 36.761467,46.107758 
	C36.961315,45.979382 37.021759,46.468395 37.047638,46.713398 
z"/>
<path fill="#EEA5AC" opacity="1.000000" stroke="none" 
	d="
M35.765709,49.180275 
	C39.241135,50.615662 38.505116,52.665215 36.294544,54.923904 
	C35.174809,54.691528 34.421204,54.371540 33.361626,54.019257 
	C33.047409,53.250729 33.039165,52.514492 33.038292,51.411102 
	C33.867317,50.482853 34.688980,49.921757 35.765709,49.180275 
z"/>
<path fill="#484344" opacity="1.000000" stroke="none" 
	d="
M31.829185,89.630821 
	C31.588987,89.778679 31.353874,89.601631 31.083721,89.140556 
	C31.249334,89.087601 31.511198,89.237396 31.829185,89.630821 
z"/>
</svg>